<?xml version="1.0" standalone="no"?>
<!DOCTYPE svg PUBLIC "-//W3C//DTD SVG 20010904//EN"
 "http://www.w3.org/TR/2001/REC-SVG-20010904/DTD/svg10.dtd">
<svg version="1.0" xmlns="http://www.w3.org/2000/svg"
 width="1280.000000pt" height="720.000000pt" viewBox="0 0 1280.000000 720.000000"
 preserveAspectRatio="xMidYMid meet">

<g transform="translate(0.000000,720.000000) scale(0.100000,-0.100000)"
fill="#000000" stroke="none">
<path d="M3790 7175 c0 -20 -5 -25 -25 -25 -23 0 -25 -4 -25 -44 0 -71 -10
-106 -31 -106 -15 0 -19 -9 -21 -52 -3 -46 -6 -53 -25 -56 -19 -3 -23 -10 -23
-40 0 -71 -11 -112 -30 -112 -16 0 -19 -14 -25 -105 -6 -90 -10 -105 -25 -105
-21 0 -30 -74 -30 -242 0 -99 -2 -108 -19 -108 -16 0 -19 -11 -26 -95 -4 -52
-4 -178 0 -280 7 -167 9 -185 25 -185 15 0 19 -14 25 -100 6 -87 9 -100 25
-100 12 0 20 9 22 23 2 14 11 23 25 25 14 2 23 11 25 25 2 14 11 23 25 25 14
2 23 11 25 25 2 14 11 23 25 25 14 2 23 11 25 25 2 16 11 23 31 25 25 3 27 6
27 53 0 46 2 49 25 49 24 0 25 -3 25 -55 0 -52 1 -55 25 -55 l25 0 0 -150 0
-150 25 0 c24 0 25 -2 25 -69 0 -96 8 -131 31 -131 16 0 19 -8 19 -42 0 -77
11 -118 31 -118 14 0 19 -9 21 -47 2 -40 7 -49 24 -51 23 -3 34 -40 34 -114 0
-34 3 -38 25 -38 23 0 25 -3 25 -50 0 -47 2 -50 25 -50 21 0 25 -5 25 -30 0
-23 4 -30 20 -30 16 0 21 -9 26 -50 6 -44 9 -50 30 -50 22 0 24 -4 24 -50 0
-47 2 -50 25 -50 20 0 25 -5 25 -25 0 -20 5 -25 24 -25 21 0 25 -6 31 -49 5
-41 11 -50 28 -53 14 -2 23 -11 25 -25 2 -14 11 -23 25 -25 16 -2 23 -11 25
-30 2 -20 9 -28 22 -28 12 0 20 -8 22 -22 2 -15 11 -24 25 -26 14 -2 23 -11
25 -25 2 -16 11 -23 31 -25 21 -3 27 -9 27 -28 0 -19 5 -24 25 -24 20 0 25 -5
25 -25 0 -20 5 -25 25 -25 20 0 25 -5 25 -25 0 -20 5 -25 25 -25 20 0 25 -5
25 -25 0 -20 5 -25 25 -25 20 0 25 -5 25 -25 0 -20 5 -25 25 -25 20 0 25 -5
25 -24 0 -19 6 -25 28 -28 19 -2 28 -9 30 -25 3 -17 12 -23 53 -28 43 -6 49
-10 49 -31 0 -19 5 -24 25 -24 20 0 25 -5 25 -25 0 -23 3 -25 50 -25 47 0 50
-2 50 -25 0 -21 5 -25 30 -25 25 0 30 -4 30 -25 0 -23 3 -25 50 -25 47 0 50
-2 50 -25 0 -23 3 -25 50 -25 47 0 50 -2 50 -25 0 -23 3 -25 50 -25 46 0 50
-2 50 -24 0 -21 6 -24 55 -31 58 -7 60 -9 49 -63 -6 -28 -11 -31 -55 -37 -43
-6 -49 -10 -49 -31 0 -19 -5 -24 -27 -25 l-28 -1 30 -8 30 -8 -30 -2 -30 -2
30 -8 30 -8 -27 -1 c-15 0 -30 -5 -33 -11 -3 -5 -16 -10 -28 -11 -20 -1 -20
-2 3 -9 24 -8 24 -8 3 -9 -13 -1 -23 -5 -23 -11 0 -5 -11 -10 -25 -10 -18 0
-25 -5 -25 -20 0 -17 7 -20 50 -20 46 0 50 -2 50 -24 0 -19 6 -24 38 -30 20
-3 54 -6 75 -6 33 0 37 -3 37 -25 0 -25 1 -25 80 -25 79 0 80 0 80 -25 0 -25
0 -25 94 -25 51 0 108 -3 125 -6 21 -5 31 -12 31 -25 0 -17 9 -19 93 -19 127
0 167 -8 167 -31 0 -18 13 -19 280 -19 267 0 280 1 280 19 0 23 40 31 168 31
91 0 92 0 92 25 l0 25 125 0 125 0 0 25 c0 25 1 25 80 25 79 0 80 0 80 25 0
24 2 25 75 25 73 0 75 1 75 25 0 23 3 25 50 25 46 0 50 2 50 24 0 23 4 25 53
28 45 3 52 6 55 25 3 19 11 22 50 25 39 3 47 6 50 25 3 17 12 23 53 28 38 5
49 11 49 25 0 14 11 20 50 25 44 6 50 10 50 31 0 20 5 24 30 24 23 0 30 4 30
20 0 16 9 21 50 26 44 6 50 9 50 30 0 19 5 24 25 24 20 0 25 5 25 25 0 20 5
25 25 25 20 0 25 5 25 25 0 23 3 25 50 25 47 0 50 2 50 25 0 20 5 25 25 25 20
0 25 5 25 25 0 20 5 25 25 25 20 0 25 5 25 24 0 19 6 25 28 28 21 2 28 9 30
31 3 21 9 27 28 27 19 0 24 5 24 25 0 20 5 25 25 25 20 0 25 5 25 25 0 20 5
25 25 25 20 0 25 5 25 25 0 20 5 25 25 25 20 0 25 5 25 25 0 20 5 25 24 25 21
0 25 6 31 50 6 40 11 50 26 50 14 0 19 7 19 25 0 20 5 25 24 25 19 0 25 6 28
28 2 19 9 28 25 30 18 3 23 12 29 47 5 35 11 45 28 47 15 2 22 11 24 31 2 19
9 27 22 27 16 0 21 10 26 50 6 44 9 50 30 50 22 0 24 4 24 50 0 47 2 50 25 50
23 0 25 3 25 50 0 47 2 50 25 50 23 0 25 3 25 50 0 47 2 50 25 50 24 0 25 3
25 55 0 52 1 55 25 55 22 0 25 4 25 38 0 73 11 112 31 112 15 0 19 7 19 34 0
75 12 126 30 126 14 0 18 13 24 77 3 42 6 98 6 125 0 40 3 48 19 48 23 0 31
40 31 168 0 83 2 92 19 92 15 0 19 11 25 78 3 42 3 168 0 280 -7 187 -8 202
-26 202 -16 0 -18 9 -18 88 0 119 -8 162 -30 162 -14 0 -18 13 -24 77 -3 42
-6 98 -6 124 0 42 -3 48 -22 51 -21 3 -23 9 -26 81 -3 74 -4 77 -27 77 -24 0
-25 2 -25 75 0 73 -1 75 -25 75 -21 0 -25 5 -25 30 0 25 -4 30 -25 30 -14 0
-25 -4 -25 -10 0 -5 -12 -11 -27 -11 l-28 -1 30 -8 30 -8 -28 -1 c-22 -1 -29
-7 -33 -31 -6 -25 -12 -30 -49 -36 -42 -6 -43 -7 -49 -49 -6 -38 -10 -43 -38
-49 -56 -11 -58 -10 -58 44 0 46 -2 50 -24 50 -21 0 -24 6 -30 50 -5 40 -10
50 -26 50 -15 0 -20 10 -25 55 -7 49 -10 55 -31 55 -22 0 -24 4 -24 50 0 47
-2 50 -25 50 -20 0 -25 5 -25 25 l0 25 -180 0 -180 0 0 -25 c0 -20 5 -25 25
-25 23 0 25 -4 25 -42 0 -78 11 -118 31 -118 18 0 19 -12 19 -224 l0 -225 -22
-3 c-21 -3 -23 -9 -26 -80 -3 -75 -4 -78 -27 -78 -23 0 -25 -4 -25 -50 0 -47
-2 -50 -25 -50 -24 0 -25 -2 -25 -75 0 -73 -1 -75 -25 -75 -20 0 -25 -5 -25
-25 0 -20 -5 -25 -25 -25 -23 0 -25 -3 -25 -49 0 -47 -2 -50 -27 -53 -22 -2
-29 -9 -31 -30 -2 -19 -9 -28 -22 -28 -13 0 -19 -11 -24 -44 -6 -36 -11 -45
-29 -48 -16 -2 -23 -11 -25 -30 -3 -22 -9 -28 -28 -28 -19 0 -24 -5 -24 -25 0
-20 -5 -25 -25 -25 -20 0 -25 -5 -25 -25 0 -20 -5 -25 -25 -25 -20 0 -25 -5
-25 -25 0 -20 -5 -25 -24 -25 -21 0 -24 -6 -30 -50 -5 -40 -10 -50 -26 -50
-13 0 -20 -8 -22 -27 -2 -22 -9 -29 -30 -31 -20 -2 -28 -9 -28 -22 0 -12 -8
-20 -22 -22 -17 -2 -24 -11 -26 -30 -3 -26 -6 -28 -53 -28 -42 0 -49 -3 -49
-20 0 -16 -9 -21 -50 -26 -44 -6 -50 -9 -50 -30 0 -19 -5 -24 -25 -24 -23 0
-25 3 -25 50 0 47 -2 50 -25 50 l-25 0 0 -130 0 -130 25 0 25 0 0 -331 0 -332
-67 5 c-100 8 -133 1 -133 -28 0 -20 -5 -24 -30 -24 -25 0 -30 -4 -30 -25 0
-20 -5 -25 -25 -25 -20 0 -25 -5 -25 -25 0 -23 -3 -25 -50 -25 l-50 0 0 -75
c0 -72 1 -75 24 -75 21 0 24 -6 30 -50 5 -39 11 -50 25 -50 15 0 20 -11 25
-50 5 -41 10 -50 26 -50 16 0 20 -7 20 -30 0 -25 4 -30 24 -30 21 0 25 -6 31
-50 6 -44 10 -50 31 -50 19 0 24 -5 24 -24 0 -18 6 -25 23 -28 16 -2 23 -11
25 -30 3 -22 9 -28 28 -28 17 0 24 -5 24 -20 0 -17 -7 -20 -50 -20 -47 0 -50
2 -50 25 0 20 -5 25 -25 25 -20 0 -25 5 -25 25 0 20 -5 25 -24 25 -21 0 -25 6
-31 50 -6 44 -10 50 -31 50 -19 0 -24 5 -24 25 0 18 -5 25 -19 25 -15 0 -20
10 -26 50 -6 44 -10 50 -31 50 -22 0 -24 4 -24 50 0 46 -2 50 -24 50 -21 0
-24 6 -30 50 -5 41 -10 50 -26 50 -16 0 -20 7 -20 30 0 25 -4 30 -25 30 -22 0
-25 4 -25 38 0 74 -11 111 -34 114 -19 3 -21 10 -24 75 -3 65 -5 72 -25 75
-21 3 -22 8 -25 106 -2 91 -5 102 -21 102 -25 0 -31 41 -31 218 l0 142 25 0
c22 0 25 4 25 39 0 67 11 101 31 101 14 0 19 7 19 30 0 25 4 30 25 30 24 0 25
3 25 56 0 52 -1 55 -22 52 -17 -2 -24 -11 -26 -31 -3 -23 -8 -28 -25 -25 -14
2 -23 11 -25 24 -2 17 -12 23 -46 28 -39 6 -44 10 -50 38 -3 17 -6 48 -6 69 0
35 -3 39 -25 39 -20 0 -25 -5 -25 -25 0 -20 -5 -25 -25 -25 -20 0 -25 -5 -25
-25 0 -20 -5 -25 -24 -25 -18 0 -25 -6 -28 -22 -2 -17 -11 -24 -30 -26 -20 -2
-28 -9 -28 -22 0 -12 -8 -20 -22 -22 -15 -2 -24 -11 -26 -25 -3 -18 -12 -23
-48 -29 -38 -5 -44 -10 -44 -30 0 -20 -5 -24 -30 -24 -25 0 -30 -4 -30 -25 0
-20 -5 -25 -25 -25 -20 0 -25 -5 -25 -25 0 -23 -3 -25 -50 -25 -46 0 -50 -2
-50 -24 0 -19 -6 -25 -27 -28 -20 -2 -29 -9 -31 -25 -3 -19 -11 -22 -50 -25
-39 -3 -47 -6 -50 -25 -3 -17 -12 -23 -53 -28 -38 -5 -49 -11 -49 -25 0 -14
-11 -20 -50 -25 -44 -6 -50 -10 -50 -31 0 -20 -5 -24 -30 -24 -23 0 -30 -5
-30 -19 0 -16 -9 -21 -45 -27 -39 -5 -45 -10 -45 -30 0 -22 -4 -24 -55 -24
-52 0 -55 -1 -55 -25 0 -23 -3 -25 -50 -25 -46 0 -50 -2 -50 -24 0 -21 -6 -25
-50 -31 -39 -5 -50 -11 -50 -25 0 -14 -11 -20 -49 -25 -41 -5 -50 -11 -53 -28
-2 -14 -11 -23 -25 -25 -15 -2 -23 -10 -23 -22 0 -26 -13 -31 -59 -24 -35 6
-41 10 -41 30 0 17 6 24 20 24 17 0 20 7 20 50 0 47 2 50 25 50 23 0 25 3 25
50 0 46 2 50 24 50 22 0 25 5 31 55 6 44 11 55 26 55 14 0 20 10 25 50 6 44 9
50 30 50 22 0 24 4 24 50 0 47 2 50 25 50 23 0 25 3 25 50 0 47 2 50 25 50 23
0 25 3 25 50 0 46 2 50 24 50 21 0 24 6 30 50 5 40 10 50 26 50 13 0 20 8 22
28 2 19 9 28 25 30 17 3 23 12 28 53 6 43 10 49 31 49 19 0 24 5 24 25 0 18 5
25 19 25 15 0 20 10 26 50 6 44 10 50 31 50 19 0 24 5 24 25 0 20 5 25 25 25
20 0 25 5 25 25 0 20 5 25 25 25 21 0 25 5 25 30 0 25 4 30 25 30 20 0 25 5
25 25 0 20 5 25 25 25 20 0 25 5 25 25 0 20 5 25 24 25 20 0 25 6 30 44 6 36
11 45 29 48 16 2 23 11 25 31 3 21 9 27 28 27 22 0 24 4 24 50 0 46 -2 50 -24
50 -19 0 -25 6 -28 28 -2 19 -9 28 -25 30 -20 3 -23 9 -23 48 l0 44 -80 0
c-79 0 -80 0 -80 -25 0 -23 -3 -25 -50 -25 -47 0 -50 -2 -50 -25 0 -23 -3 -25
-50 -25 -47 0 -50 -2 -50 -25 l0 -25 -155 0 -155 0 0 25 0 25 -130 0 -130 0 0
25 c0 24 -2 25 -75 25 -73 0 -75 1 -75 24 0 23 -4 25 -52 28 -46 3 -53 6 -56
25 -3 19 -11 22 -50 25 -40 3 -47 6 -50 25 -3 19 -11 22 -50 25 -39 3 -47 6
-50 25 -3 17 -12 23 -53 28 -43 6 -49 10 -49 31 0 22 -4 24 -50 24 -47 0 -50
2 -50 25 0 20 -5 25 -24 25 -18 0 -25 6 -28 23 -3 19 -10 22 -50 25 -43 3 -48
5 -48 28 0 20 -5 24 -30 24 -25 0 -30 4 -30 25 0 20 -5 25 -25 25 -23 0 -25 3
-25 50 0 46 2 50 24 50 18 0 25 -6 28 -22 2 -15 11 -24 25 -26 14 -2 23 -11
25 -25 2 -16 11 -23 31 -25 21 -3 27 -9 27 -28 0 -22 4 -24 50 -24 47 0 50 -2
50 -25 0 -23 3 -25 50 -25 46 0 50 -2 50 -24 0 -19 6 -25 28 -28 19 -2 28 -9
30 -25 3 -20 9 -23 53 -23 46 0 49 -2 49 -25 0 -23 3 -25 50 -25 47 0 50 -2
50 -25 0 -24 2 -25 75 -25 73 0 75 -1 75 -25 0 -20 5 -25 25 -25 20 0 25 5 25
25 0 20 -5 25 -25 25 -20 0 -25 5 -25 25 0 20 -5 25 -25 25 -23 0 -25 3 -25
50 0 46 -2 50 -24 50 -23 0 -25 4 -28 53 -3 45 -6 52 -25 55 -20 3 -23 9 -23
47 0 40 -2 44 -27 47 -22 2 -29 9 -31 31 -2 19 -9 27 -23 27 -12 0 -19 7 -19
18 0 18 18 19 302 25 166 4 373 7 461 7 l160 0 -7 38 c-3 20 -6 43 -6 50 0 6
-8 12 -19 12 -20 0 -31 39 -31 113 l0 37 -970 0 -970 0 0 -25z m1790 -2760 l0
-25 150 0 150 0 0 -25 c0 -24 3 -25 55 -25 52 0 55 -1 55 -25 0 -24 -3 -25
-55 -25 -52 0 -55 -1 -55 -25 0 -23 -3 -25 -50 -25 -47 0 -50 -2 -50 -25 0
-23 -3 -25 -50 -25 -47 0 -50 -2 -50 -25 0 -23 -4 -25 -44 -25 l-45 0 -3 48
-3 47 -52 3 c-49 3 -53 5 -53 28 0 19 -5 24 -25 24 -23 0 -25 3 -25 50 l0 50
50 0 c47 0 50 2 50 25 0 20 5 25 25 25 20 0 25 -5 25 -25z"/>
<path d="M9438 6983 c6 -2 18 -2 25 0 6 3 1 5 -13 5 -14 0 -19 -2 -12 -5z"/>
<path d="M9438 6963 c6 -2 18 -2 25 0 6 3 1 5 -13 5 -14 0 -19 -2 -12 -5z"/>
<path d="M5890 5485 c0 -20 -5 -25 -25 -25 -20 0 -25 -5 -25 -25 0 -20 -5 -25
-25 -25 -23 0 -25 -3 -25 -50 0 -46 -2 -50 -24 -50 -21 0 -25 -6 -31 -49 -5
-41 -11 -50 -28 -53 -16 -2 -23 -11 -25 -30 -2 -20 -9 -28 -22 -28 -16 0 -21
-10 -26 -50 -6 -44 -9 -50 -30 -50 -22 0 -24 -4 -24 -50 0 -47 -2 -50 -25 -50
-23 0 -25 -3 -25 -50 l0 -50 100 0 c99 0 100 0 100 24 0 23 4 25 53 28 45 3
52 6 55 25 3 17 12 23 53 28 39 6 49 11 49 26 0 13 7 19 24 19 19 0 25 6 28
28 2 19 9 28 26 30 19 3 22 9 22 53 0 42 -3 49 -20 49 -16 0 -21 9 -26 50 -6
44 -9 50 -30 50 -22 0 -24 4 -24 55 0 52 -1 55 -25 55 -23 0 -25 4 -25 44 0
39 3 45 23 48 14 2 23 11 25 26 3 18 -1 22 -22 22 -21 0 -26 -5 -26 -25z"/>
<path d="M7120 5490 c0 -13 7 -20 20 -20 13 0 20 7 20 20 0 13 -7 20 -20 20
-13 0 -20 -7 -20 -20z"/>
</g>
</svg>
