<?xml version="1.0" standalone="no"?>
<!DOCTYPE svg PUBLIC "-//W3C//DTD SVG 20010904//EN"
 "http://www.w3.org/TR/2001/REC-SVG-20010904/DTD/svg10.dtd">
<svg version="1.0" xmlns="http://www.w3.org/2000/svg"
 width="650.000000pt" height="400.000000pt" viewBox="0 0 650.000000 400.000000"
 preserveAspectRatio="xMidYMid meet">

<g transform="translate(0.000000,400.000000) scale(0.100000,-0.100000)"
fill="#000000" stroke="none">
<path d="M3040 3874 c-292 -53 -410 -87 -586 -169 -187 -87 -338 -191 -494
-339 -69 -66 -195 -204 -223 -246 -158 -233 -213 -342 -282 -560 -66 -209 -80
-308 -80 -565 0 -200 3 -245 23 -345 107 -531 398 -952 852 -1228 308 -188
746 -289 1100 -253 372 38 694 163 1005 391 81 58 285 266 363 367 34 44 62
84 62 87 0 3 13 25 29 49 17 24 52 88 79 143 356 718 233 1559 -311 2121 -263
271 -589 447 -972 524 -89 18 -151 22 -325 25 -118 1 -226 0 -240 -2z m826
-872 c45 -45 71 -85 84 -132 17 -62 54 -95 117 -104 79 -10 134 -39 173 -90
18 -26 40 -46 47 -46 8 0 13 -6 11 -14 -2 -8 2 -16 7 -17 17 -4 44 -45 77
-116 17 -37 37 -71 43 -75 7 -4 18 -22 26 -40 7 -18 15 -35 18 -38 14 -13 41
-84 61 -164 18 -71 22 -104 17 -170 -6 -88 -51 -235 -86 -285 -12 -16 -21 -34
-21 -40 0 -6 -3 -11 -8 -11 -4 0 -12 -9 -17 -19 -33 -63 -98 -172 -107 -177
-5 -4 -14 -1 -18 5 -5 8 -23 10 -58 5 -31 -4 -57 -2 -64 4 -7 5 -27 13 -45 16
-17 4 -42 18 -55 30 -32 32 -79 25 -97 -15 -7 -16 -10 -37 -6 -48 3 -12 -1
-31 -10 -45 -9 -14 -15 -33 -14 -43 3 -22 -6 -52 -38 -120 -41 -86 -49 -59
-56 182 -4 116 -11 239 -17 275 -19 121 -52 240 -76 273 -35 48 -71 119 -75
147 -6 36 24 38 38 3 l12 -28 -2 36 c-1 26 6 45 25 68 37 44 48 118 27 191 -3
12 6 14 51 13 37 -2 49 0 35 6 -11 4 -26 6 -34 3 -10 -4 -12 -1 -6 8 6 10 4
12 -8 7 -12 -4 -17 -1 -18 11 0 10 -3 12 -6 5 -8 -21 -22 -15 -54 19 -16 18
-29 26 -29 19 0 -10 -3 -11 -13 -2 -8 6 -16 8 -19 6 -3 -3 -5 4 -4 16 0 12 -5
24 -13 27 -9 3 -11 0 -6 -8 5 -8 3 -11 -6 -8 -8 3 -13 10 -12 16 4 16 -60 26
-113 18 -25 -3 -60 -17 -78 -31 -26 -20 -40 -23 -72 -19 l-39 5 28 -18 c15
-10 27 -23 27 -30 0 -29 -61 -8 -156 53 -33 22 -79 46 -102 53 -38 13 -59 41
-31 41 7 0 9 12 5 35 -4 20 -4 45 -1 55 7 21 34 27 51 10 6 -6 21 -2 42 13 27
19 32 28 32 65 0 35 3 42 20 42 11 0 29 -13 40 -28 27 -37 64 -36 68 1 9 77
76 40 88 -49 3 -30 9 -54 13 -54 3 -1 23 -3 43 -6 20 -3 44 -2 52 3 41 23 147
139 172 189 30 60 69 98 91 89 10 -3 13 1 8 15 -5 17 0 40 9 40 2 0 16 -13 32
-28z m-1741 -529 c224 -150 390 -241 488 -268 77 -21 113 -13 207 43 36 22 88
46 115 55 59 19 305 67 338 66 21 0 21 -1 3 -12 -254 -158 -387 -296 -536
-557 -88 -154 -241 -502 -227 -516 3 -4 20 -1 38 5 42 14 59 14 59 -1 0 -18
-91 -61 -112 -53 -20 8 -38 55 -28 75 4 8 13 31 20 50 55 154 95 257 105 270
6 8 18 31 25 50 62 162 213 382 364 529 30 30 53 58 50 62 -6 10 -124 -30
-189 -64 -27 -14 -80 -31 -117 -38 -58 -11 -76 -10 -127 4 -166 46 -571 286
-571 338 0 19 27 8 95 -38z m1451 -517 c-9 -44 -23 -116 -31 -159 -8 -43 -27
-102 -41 -130 -15 -29 -39 -78 -55 -109 -19 -37 -29 -73 -29 -101 0 -87 64
-226 201 -437 30 -47 68 -107 83 -135 l28 -50 -28 34 c-227 269 -234 279 -283
401 -53 133 -58 197 -25 311 3 11 -10 23 -40 39 -54 27 -63 46 -36 75 11 12
18 24 15 27 -3 3 15 27 41 54 80 84 161 190 185 245 31 67 36 43 15 -65z
m-247 -239 c-2 -1 -13 -9 -24 -17 -19 -14 -19 -14 -6 3 7 9 18 17 24 17 6 0 8
-1 6 -3z m528 -549 c-3 -7 -5 -2 -5 12 0 14 2 19 5 13 2 -7 2 -19 0 -25z m-20
-150 c-3 -7 -5 -2 -5 12 0 14 2 19 5 13 2 -7 2 -19 0 -25z m-10 -70 c-3 -7 -5
-2 -5 12 0 14 2 19 5 13 2 -7 2 -19 0 -25z m-12 -85 c-10 -40 -17 -20 -9 23 5
24 9 32 12 21 2 -10 1 -30 -3 -44z"/>
<path d="M3631 2594 c0 -11 3 -14 6 -6 3 7 2 16 -1 19 -3 4 -6 -2 -5 -13z"/>
<path d="M3766 2467 c3 -10 9 -15 12 -12 3 3 0 11 -7 18 -10 9 -11 8 -5 -6z"/>
</g>
</svg>
