<?xml version="1.0" standalone="no"?>
<!DOCTYPE svg PUBLIC "-//W3C//DTD SVG 20010904//EN"
 "http://www.w3.org/TR/2001/REC-SVG-20010904/DTD/svg10.dtd">
<svg version="1.0" xmlns="http://www.w3.org/2000/svg"
 width="900.000000pt" height="900.000000pt" viewBox="0 0 900.000000 900.000000"
 preserveAspectRatio="xMidYMid meet">

<g transform="translate(0.000000,900.000000) scale(0.100000,-0.100000)"
fill="#000000" stroke="none">
<path d="M0 6000 c0 -1650 2 -3000 5 -3000 3 0 16 6 28 14 12 8 57 29 101 46
74 30 85 31 180 28 96 -4 106 -7 196 -50 276 -133 441 -132 760 5 178 76 231
90 307 85 38 -3 101 -17 141 -30 39 -14 72 -23 72 -21 0 2 -7 17 -15 33 -9 17
-12 30 -8 30 4 0 -40 48 -99 108 -100 101 -109 112 -142 197 -80 201 -287 576
-370 672 -22 25 -63 62 -92 84 -29 21 -64 55 -78 76 -61 88 -77 113 -137 213
-34 58 -85 130 -112 160 -55 61 -143 187 -135 195 3 3 28 -30 56 -72 28 -43
73 -101 99 -129 27 -28 72 -93 102 -145 115 -203 199 -303 249 -297 16 2 31
12 37 26 5 12 13 22 17 22 5 0 8 6 8 14 0 8 7 16 15 20 37 14 5 90 -65 156
-55 52 -183 165 -200 177 -14 10 -17 21 -13 47 5 30 0 40 -36 79 -23 24 -59
57 -81 72 -22 15 -37 31 -35 36 3 4 0 11 -6 15 -8 4 -9 3 -5 -4 11 -19 -2 -14
-60 20 -39 24 -54 39 -54 55 0 30 -14 36 -55 23 -36 -12 -95 -5 -95 10 0 5 14
4 31 -2 36 -13 52 -2 25 18 -27 19 -97 19 -90 0 8 -21 68 -65 149 -109 39 -21
59 -35 46 -31 -13 3 -29 7 -35 8 -37 6 -206 146 -206 171 0 5 17 15 37 22 31
9 41 9 54 -3 9 -8 18 -12 21 -9 2 3 20 7 38 9 27 3 41 -3 79 -38 25 -22 50
-47 54 -53 4 -7 18 -13 30 -13 33 0 67 -28 67 -55 0 -19 17 -35 83 -78 112
-74 147 -111 147 -153 0 -26 6 -38 27 -51 71 -45 184 -132 241 -187 35 -33 75
-65 90 -71 21 -9 26 -18 27 -48 2 -43 -2 -46 -15 -14 l-10 22 3 -24 c1 -13 12
-30 24 -38 24 -16 24 -19 8 47 -6 24 -6 24 9 6 9 -11 16 -32 16 -47 0 -50 73
-132 183 -206 141 -95 224 -176 232 -228 3 -22 13 -51 21 -65 9 -14 33 -63 55
-110 22 -47 50 -102 61 -123 20 -37 20 -44 8 -175 -14 -152 -15 -171 -4 -256
l7 -59 116 6 c141 7 204 20 290 59 170 78 312 128 466 165 131 31 290 36 535
15 171 -15 290 -6 366 27 63 28 112 121 64 121 -11 0 -20 3 -20 8 0 4 -16 23
-35 43 -46 49 -109 60 -163 29 -90 -53 -195 -88 -290 -95 -81 -7 -95 -5 -112
10 -55 50 16 195 172 352 39 40 75 73 80 73 8 0 -18 -50 -81 -159 -15 -25 -37
-71 -48 -101 -12 -30 -24 -62 -27 -70 -3 -8 -3 3 0 25 3 22 30 86 60 142 30
56 48 100 40 97 -30 -11 -141 -154 -180 -233 -45 -89 -29 -131 50 -131 41 0
44 2 34 19 -5 11 -10 26 -9 33 0 7 4 3 9 -9 13 -33 30 -28 30 8 0 73 56 228
109 299 47 64 60 71 126 67 33 -2 67 -6 75 -10 12 -6 16 4 18 55 4 90 -2 108
-37 108 -42 0 -118 -26 -162 -55 -22 -14 -43 -23 -48 -21 -4 3 -11 32 -14 64
-6 69 -37 145 -75 185 -24 25 -27 36 -26 91 l1 63 -37 -13 c-21 -7 -79 -16
-128 -20 -78 -6 -95 -4 -118 11 -25 16 -26 20 -20 79 10 87 44 245 61 284 19
43 59 62 82 39 11 -11 13 -21 7 -29 -5 -8 -2 -6 8 4 23 26 30 22 26 -14 -3
-27 -9 -35 -43 -47 -22 -8 -43 -20 -47 -25 -4 -6 -8 -50 -8 -98 l0 -88 68 0
c37 1 78 7 91 14 23 13 23 13 -21 24 -25 7 -56 21 -69 33 -21 18 -21 20 -4 14
57 -19 74 -17 99 8 15 15 28 43 32 67 9 56 43 103 82 115 23 7 35 18 43 42 11
35 62 73 98 73 35 0 81 -29 91 -56 13 -34 13 -130 -1 -177 -6 -21 -20 -48 -31
-59 -16 -16 -18 -22 -7 -29 8 -5 20 -7 27 -4 8 3 38 8 68 11 47 6 58 4 86 -18
18 -13 58 -31 88 -41 31 -9 64 -23 75 -31 18 -13 20 -11 37 43 22 71 22 88 0
130 -16 30 -24 35 -58 35 -29 1 -40 5 -42 19 -4 22 15 47 35 47 11 0 8 -6 -7
-18 -26 -21 -20 -42 12 -42 17 0 18 2 8 15 -10 12 -10 15 3 15 21 0 55 -45 69
-92 9 -32 8 -48 -5 -92 -9 -29 -17 -62 -17 -74 0 -19 -3 -19 -66 14 -36 19
-75 34 -86 34 -11 0 -33 11 -50 25 -29 25 -80 33 -105 17 -24 -15 -42 -77 -34
-113 8 -35 28 -79 36 -79 3 0 13 17 24 38 33 64 42 67 99 31 53 -33 142 -59
203 -59 l36 0 7 79 c13 154 -11 241 -78 282 -19 11 -25 19 -15 19 25 0 65 -35
82 -72 20 -43 29 -156 20 -243 l-8 -70 -56 -3 c-57 -3 -162 28 -212 63 -12 8
-25 15 -29 15 -17 0 -68 -95 -68 -125 0 -17 -7 -40 -15 -51 -31 -41 -15 -103
42 -159 53 -52 73 -85 73 -123 0 -41 -59 -152 -109 -204 -40 -43 -34 -45 54
-23 40 11 72 27 95 49 46 44 94 70 113 63 23 -9 119 -210 124 -260 4 -31 1
-46 -11 -56 -27 -22 -18 -56 27 -106 33 -37 52 -49 87 -55 53 -11 1023 -13
1033 -3 4 4 -3 18 -17 32 -13 14 -36 58 -52 96 -25 62 -28 82 -29 186 0 112 1
117 30 164 37 60 96 106 172 135 107 41 181 37 284 -15 l47 -23 33 71 c44 94
53 203 20 236 -13 13 -34 21 -55 21 -56 0 -66 8 -66 51 0 46 8 48 72 19 25
-11 78 -22 119 -26 41 -3 87 -11 103 -17 l30 -11 -30 -13 c-16 -6 -46 -12 -67
-13 -47 0 -53 -13 -33 -80 8 -28 23 -95 32 -148 9 -53 17 -98 18 -99 3 -4 415
224 432 238 8 6 13 25 11 43 l-2 31 118 3 c96 2 117 0 117 -12 0 -9 -16 -16
-47 -20 -27 -4 -63 -12 -82 -18 -33 -10 -33 -11 -28 -59 3 -26 15 -66 27 -88
l20 -41 70 0 c222 0 376 -159 357 -370 -6 -73 -34 -135 -81 -181 l-37 -36 62
-23 c55 -21 66 -22 108 -11 69 18 204 85 279 137 l66 46 111 -6 c106 -7 114
-6 191 23 44 16 102 32 128 36 60 9 127 58 143 105 7 19 13 55 14 80 l2 45 6
-40 c4 -22 3 -45 -2 -52 -5 -7 -7 -18 -5 -25 3 -7 19 18 36 55 37 78 45 170
16 181 -22 8 -21 10 -32 -59 -9 -52 -9 -47 -4 42 5 99 4 103 -21 136 -14 19
-24 36 -22 39 2 2 -12 5 -33 6 -38 2 -72 30 -72 58 0 8 11 40 24 72 13 31 27
75 31 97 14 79 54 125 108 125 19 0 38 10 57 30 34 37 49 37 84 5 27 -25 27
-28 24 -123 -2 -77 0 -99 12 -109 22 -18 0 -47 -39 -51 -29 -3 -30 -5 -17 -24
13 -18 12 -24 -4 -50 -10 -17 -16 -37 -13 -44 3 -8 1 -14 -5 -14 -5 0 -12 9
-15 20 -7 28 -28 33 -76 20 -51 -13 -54 -37 -10 -74 l31 -26 25 20 c37 29 64
25 105 -17 34 -37 36 -41 42 -132 3 -53 11 -98 17 -102 33 -20 93 -18 185 7
54 14 107 23 119 20 35 -9 37 4 5 41 -17 18 -30 39 -30 45 0 6 23 32 50 59 27
27 50 52 50 56 0 5 -12 31 -27 58 -14 28 -29 64 -33 80 -4 23 -12 31 -33 33
-26 3 -27 1 -27 -38 0 -25 4 -39 10 -35 5 3 10 15 10 26 0 10 5 19 10 19 15 0
12 -36 -5 -50 -23 -19 -35 -2 -35 49 0 30 -6 53 -14 60 -19 16 -33 190 -17
219 21 39 60 74 78 70 10 -2 22 -13 28 -25 9 -21 10 -21 20 10 20 62 87 34 71
-29 -4 -14 -2 -24 4 -24 14 0 60 -103 60 -133 0 -12 7 -42 15 -66 16 -44 12
-81 -7 -81 -6 0 -8 -13 -4 -34 8 -44 0 -63 -31 -71 -28 -7 -152 -132 -153
-154 0 -15 48 -71 61 -71 4 0 7 10 7 23 -4 58 4 75 51 122 37 37 47 53 39 62
-7 9 -7 13 1 13 26 0 24 -33 -3 -55 -16 -13 -24 -25 -18 -29 5 -3 12 -18 15
-34 3 -16 18 -37 32 -46 25 -16 30 -16 93 -1 37 9 85 25 108 35 22 9 76 21
120 25 84 8 102 14 147 51 41 34 54 30 15 -5 -48 -41 -65 -48 -145 -55 -40 -4
-119 -23 -175 -42 -115 -38 -143 -41 -170 -17 -17 15 -18 15 -18 -4 0 -12 -8
-30 -17 -42 -15 -18 -30 -22 -98 -23 -55 -1 -111 -10 -179 -30 -68 -19 -103
-25 -110 -18 -5 5 -22 10 -36 10 -14 0 -36 7 -49 17 l-24 16 7 -41 c4 -26 2
-42 -4 -42 -14 0 -19 32 -23 139 -1 27 -5 47 -9 44 -5 -2 -8 7 -8 20 0 29 -32
60 -84 81 -47 19 -46 19 -46 2 0 -9 7 -12 18 -10 9 3 25 -1 36 -9 17 -13 18
-19 6 -88 -7 -41 -19 -91 -27 -112 -10 -23 -13 -51 -9 -75 15 -88 16 -87 -36
-90 -31 -2 -48 1 -48 8 0 6 -12 2 -28 -9 -15 -11 -66 -29 -113 -41 -46 -11
-110 -32 -142 -46 -58 -25 -60 -26 -160 -13 l-102 12 -69 -47 c-88 -60 -186
-110 -261 -132 -51 -14 -66 -15 -110 -4 -27 7 -62 19 -76 26 -17 8 -29 10 -36
3 -25 -25 -150 -59 -218 -59 -305 -1 -428 394 -183 588 51 40 79 41 111 2 25
-30 108 -193 122 -240 4 -14 12 -30 17 -36 5 -7 22 -39 38 -73 32 -65 103
-151 126 -151 26 0 82 69 104 127 56 149 -16 322 -165 398 -50 25 -68 28 -151
29 l-94 1 -24 57 c-55 127 -46 154 59 169 38 5 71 12 74 14 2 3 -46 5 -107 5
l-111 0 5 -30 c8 -36 -4 -52 -59 -80 -180 -93 -387 -214 -387 -226 0 -8 2 -14
5 -14 7 0 228 116 336 176 54 30 107 54 118 54 26 0 44 -40 35 -78 -11 -45
-387 -403 -405 -385 -14 14 2 101 23 128 10 13 28 25 41 28 21 3 20 4 -7 16
-16 6 -35 10 -41 7 -7 -2 -20 -54 -29 -118 -10 -62 -24 -137 -33 -165 l-14
-53 -45 0 c-24 0 -44 3 -44 8 0 4 16 27 36 52 l36 45 -5 110 c-8 144 -12 156
-44 144 -30 -11 -63 -12 -63 -1 0 5 16 9 35 10 43 2 55 8 55 28 0 13 -7 12
-37 -6 l-38 -22 35 31 34 31 -29 137 c-15 76 -29 152 -29 168 -1 29 1 30 51
35 75 8 73 16 -5 23 -59 6 -122 23 -195 52 -16 7 -18 3 -15 -26 3 -33 4 -34
57 -39 69 -7 81 -24 81 -113 0 -58 -6 -84 -36 -153 l-35 -82 40 -54 c70 -91
100 -246 66 -335 -36 -93 -150 -183 -233 -183 -43 0 -88 43 -97 93 -4 19 -3
67 2 106 8 62 7 71 -6 71 -13 0 -13 2 -3 9 8 4 12 19 10 32 -4 32 -58 42 -58
10 0 -11 7 -27 16 -35 14 -14 14 -16 0 -16 -17 0 -31 42 -22 66 4 10 16 14 38
12 25 -2 34 -8 36 -25 2 -13 7 -23 11 -23 20 0 186 260 173 271 -4 4 -31 19
-60 34 -152 79 -383 -13 -437 -175 -34 -101 1 -301 65 -374 62 -70 89 -66
-495 -66 -502 0 -528 1 -564 20 -46 23 -89 71 -97 108 -22 102 -43 129 -116
147 -24 6 -26 4 -22 -17 l5 -23 -12 23 c-10 17 -20 22 -53 21 -38 0 -39 -1
-16 -10 14 -6 35 -19 47 -31 12 -11 26 -17 32 -13 17 10 13 -99 -5 -138 -18
-38 -65 -73 -120 -89 -48 -15 -337 -14 -487 1 -138 13 -283 0 -434 -40 -128
-34 -193 -58 -388 -143 -96 -42 -194 -63 -335 -72 -58 -4 -111 -11 -117 -17
-9 -7 -13 -5 -13 7 0 9 -7 16 -15 16 -13 0 -14 -4 -5 -20 13 -25 4 -46 -14
-31 -7 6 -16 8 -19 5 -10 -10 -59 25 -52 37 4 5 2 8 -3 7 -5 -2 -18 7 -28 18
-11 12 -55 34 -98 50 -113 40 -212 39 -316 -4 -237 -98 -283 -115 -365 -134
-177 -42 -303 -25 -515 70 -102 46 -137 57 -192 60 -84 5 -181 -17 -263 -61
l-60 -32 -3 -1492 -2 -1493 4500 0 4500 0 0 4500 0 4500 -4500 0 -4500 0 0
-3000z m4800 2430 c0 -5 -3 -10 -7 -10 -5 0 -18 -3 -30 -6 -17 -5 -23 -2 -23
10 0 11 9 16 30 16 17 0 30 -4 30 -10z m-70 -4 c0 -3 -4 -8 -10 -11 -5 -3 -10
-1 -10 4 0 6 5 11 10 11 6 0 10 -2 10 -4z m-2450 -27 c0 -4 -19 -8 -43 -7 -24
0 -63 -2 -87 -6 -39 -5 -41 -4 -15 5 74 25 145 29 145 8z m1460 0 c0 -5 -24
-9 -52 -9 -29 0 -71 -2 -93 -5 -56 -7 -31 3 46 19 64 13 99 11 99 -5z m1203
-6 c-7 -2 -19 -2 -25 0 -7 3 -2 5 12 5 14 0 19 -2 13 -5z m896 -188 c12 -5
297 -8 329 -4 21 3 31 -4 42 -31 7 -16 17 -30 23 -30 8 0 7 -4 0 -11 -22 -22
48 -63 79 -48 9 5 27 5 41 0 24 -9 24 -9 26 57 1 37 6 71 11 76 13 13 169 11
181 -1 6 -6 11 -36 11 -67 0 -40 4 -56 14 -56 8 0 14 -7 14 -15 0 -8 -7 -15
-15 -15 -12 0 -15 -16 -15 -80 l0 -80 28 0 c15 0 45 -7 67 -15 l40 -14 -35 1
c-19 1 -45 -2 -57 -6 -15 -5 -23 -3 -23 5 0 9 -4 8 -15 -1 -20 -16 -10 -29 18
-23 18 4 19 3 7 -6 -10 -7 -11 -11 -2 -11 17 0 15 -20 -4 -27 -9 -3 -20 0 -25
8 -6 9 -9 0 -9 -29 0 -27 -5 -45 -14 -48 -10 -4 -12 -14 -6 -38 10 -43 18 -56
36 -56 17 0 17 1 4 34 -15 41 16 33 42 -10 20 -34 22 -35 35 -18 7 10 13 23
13 29 0 6 10 19 21 29 17 14 34 17 85 13 36 -2 67 -7 71 -10 8 -8 -16 -37 -31
-37 -6 0 -12 -12 -13 -27 0 -15 -6 -29 -12 -31 -6 -2 -11 -10 -11 -17 0 -21
-35 -58 -60 -62 -31 -4 -48 12 -56 54 -9 50 -38 41 -42 -14 -4 -50 -28 -65
-54 -33 -16 20 -17 8 -13 -209 3 -198 6 -233 21 -257 17 -25 17 -27 -1 -40
-11 -8 -44 -14 -81 -14 -70 0 -127 16 -105 29 10 6 11 24 5 72 -4 35 -8 189
-8 342 -1 193 -5 280 -13 285 -7 5 -9 21 -4 48 4 22 4 51 -1 63 -4 13 -6 26
-4 30 3 4 -8 12 -24 18 -25 9 -34 8 -55 -9 -26 -20 -57 -16 -36 5 6 6 11 20
11 30 0 11 8 26 17 33 10 7 15 16 10 20 -9 9 -253 28 -272 20 -12 -4 -13 -35
-9 -185 4 -118 2 -186 -5 -199 -8 -15 -8 -22 2 -25 9 -3 9 -7 0 -17 -8 -9 -12
-7 -18 9 -6 21 -25 28 -38 14 -9 -9 13 -34 24 -27 13 8 11 -10 -3 -26 -11 -12
-10 -12 4 -1 9 7 21 10 26 7 5 -3 9 -124 10 -269 2 -303 13 -274 -103 -273
l-70 1 -6 60 c-4 33 -3 68 2 77 6 10 5 19 -1 23 -8 5 -9 226 0 347 0 4 6 5 14
2 8 -3 12 -12 9 -20 -7 -20 4 -17 27 6 12 12 15 20 8 21 -7 0 5 9 27 19 l40
19 -35 -6 c-19 -3 -43 -10 -52 -14 -23 -12 -41 -11 -33 1 3 6 1 10 -4 10 -6 0
-11 7 -11 15 0 8 -7 15 -16 15 -11 0 -15 -6 -11 -17 2 -10 6 -24 8 -32 5 -17
-104 -76 -110 -60 -4 13 30 40 45 35 6 -2 17 -1 24 4 9 6 7 13 -9 29 -11 11
-21 24 -21 29 0 10 41 35 47 28 3 -3 14 -1 24 5 17 9 19 24 19 174 0 97 4 165
10 167 6 2 5 16 -3 38 -9 27 -17 35 -37 35 -22 0 -25 4 -22 29 2 17 13 43 24
59 15 21 17 32 9 40 -8 8 -17 5 -35 -12 -14 -13 -29 -20 -34 -17 -5 3 -15 -1
-21 -8 -8 -9 -8 -16 -2 -20 5 -4 12 -2 16 4 13 21 27 10 21 -16 -5 -17 -3 -23
4 -19 14 9 12 -7 -5 -29 -14 -19 -35 -14 -35 8 0 8 -7 19 -15 26 -14 11 -14
10 -5 -15 13 -33 13 -32 -25 -37 -35 -4 -46 20 -20 45 8 9 15 21 15 27 0 6 6
13 14 16 21 8 7 54 -21 65 -13 5 -21 13 -18 19 8 12 45 13 45 1 0 -5 9 -7 21
-4 12 3 24 1 28 -5 3 -5 18 -8 34 -5 23 5 27 10 28 42 0 33 1 34 11 14 6 -12
18 -25 27 -28z m-3741 17 c-23 -29 -40 -64 -34 -70 3 -3 6 0 6 7 0 26 23 4 26
-26 3 -24 0 -30 -13 -29 -10 0 -19 -7 -21 -16 -2 -12 1 -16 11 -12 8 3 21 -1
29 -9 12 -12 14 -3 13 66 l0 80 30 9 c63 17 259 4 261 -17 1 -19 16 -45 25
-45 5 0 8 5 7 11 -3 13 48 21 75 13 14 -4 17 -12 13 -30 -5 -17 -2 -26 9 -31
12 -4 15 -13 10 -32 -4 -14 -8 -35 -9 -46 0 -11 -12 -25 -25 -31 l-23 -12 21
-11 c20 -11 20 -14 6 -34 -8 -12 -15 -29 -15 -37 0 -31 -21 -40 -53 -24 -16 9
-26 11 -23 5 7 -11 -49 -24 -85 -19 -20 2 -25 10 -30 43 -11 79 -47 105 -145
105 l-54 0 0 -81 c0 -80 0 -81 -22 -74 -13 4 -54 8 -93 9 l-70 1 -2 30 c-5 76
-4 285 2 295 3 5 31 10 61 10 30 0 53 4 50 9 -3 5 13 9 35 9 37 1 40 -1 27
-16z m1462 10 c0 -3 -7 -14 -17 -24 -14 -16 -14 -22 -3 -43 12 -22 15 -23 22
-10 5 8 7 19 4 24 -3 4 1 16 8 27 10 13 27 18 60 19 25 0 46 4 46 9 0 4 12 5
28 1 15 -4 54 -10 87 -14 36 -4 59 -11 58 -18 -1 -6 7 -19 17 -28 17 -15 20
-16 20 -3 0 11 10 15 38 13 53 -3 52 -3 52 -31 0 -14 7 -32 15 -40 12 -13 13
-20 3 -37 -7 -12 -11 -30 -9 -39 1 -11 -7 -20 -23 -24 -26 -6 -26 -6 -5 -23
19 -15 19 -18 5 -46 -9 -17 -16 -35 -16 -42 0 -21 -20 -25 -45 -9 -16 11 -25
12 -27 4 -2 -6 -26 -12 -53 -12 -42 -1 -50 2 -53 19 -1 11 -10 39 -18 62 -13
35 -22 44 -52 53 -20 5 -60 10 -88 10 l-52 0 5 -81 5 -82 -24 8 c-12 4 -56 7
-95 6 -40 -1 -73 1 -74 6 -4 46 -7 302 -3 316 4 14 17 17 65 17 33 0 58 4 55
9 -3 5 10 9 29 9 19 0 35 -3 35 -6z m-682 -18 c10 -3 12 -44 10 -186 -3 -173
-2 -183 16 -180 11 2 15 -1 11 -7 -3 -6 -1 -11 4 -11 17 0 13 -20 -5 -27 -9
-3 -20 0 -25 8 -6 10 -9 6 -10 -16 -1 -16 -1 -34 1 -40 1 -5 -5 -14 -14 -20
-22 -16 -1 -95 25 -95 15 0 16 5 9 30 -11 40 15 42 33 3 19 -45 47 -53 47 -14
0 10 11 28 24 40 22 21 32 23 90 19 37 -3 69 -8 73 -11 9 -9 -17 -37 -34 -37
-8 0 -11 -5 -7 -11 3 -6 -3 -24 -15 -40 -11 -15 -21 -34 -21 -42 0 -19 -31
-43 -57 -45 -27 -1 -53 32 -53 66 0 17 -5 23 -17 20 -13 -2 -19 -14 -21 -41
-5 -59 -44 -70 -65 -17 -4 8 -4 -82 -2 -200 3 -128 2 -221 -4 -229 -7 -10 -4
-22 10 -39 23 -30 25 -58 3 -66 -32 -12 -150 -6 -170 9 -10 8 -14 15 -7 15 15
0 14 82 -1 92 -7 5 -7 8 2 8 9 0 10 5 2 19 -6 12 -10 92 -10 190 0 145 -2 171
-15 171 -21 0 -19 18 3 23 13 4 11 5 -5 6 -28 1 -31 21 -3 21 13 0 20 7 21 20
2 94 0 145 -7 147 -9 3 -9 436 0 459 8 20 130 25 184 8z m1606 -8 c-2 -18 11
-22 21 -6 16 25 120 -45 163 -110 36 -54 60 -163 41 -186 -6 -8 -7 -14 -2 -14
5 0 8 -29 7 -64 -2 -60 -1 -63 20 -59 20 4 20 4 4 -10 -22 -17 -24 -39 -3 -31
11 5 15 -1 15 -24 0 -28 21 -58 32 -47 3 3 13 -4 23 -15 27 -29 13 -34 -31
-11 -29 16 -40 18 -46 8 -4 -6 -8 -74 -8 -149 0 -76 -4 -138 -9 -138 -5 0 -7
-10 -3 -22 5 -19 2 -21 -31 -15 -27 4 -35 2 -31 -8 3 -7 1 -16 -5 -19 -5 -4
-18 10 -27 30 -11 23 -29 41 -50 50 -39 16 -43 40 -43 244 1 380 2 369 -30
401 -17 17 -40 29 -55 29 -36 0 -78 -21 -72 -36 3 -7 -3 -23 -13 -35 -22 -27
-17 -107 7 -125 15 -11 28 -54 16 -54 -3 0 -13 4 -22 9 -16 8 -17 -4 -15 -148
1 -86 2 -167 1 -181 -1 -14 -2 -69 -2 -123 -1 -98 -1 -99 29 -123 44 -35 98
-33 137 6 28 29 33 30 119 30 101 0 102 -1 74 -81 -24 -68 -100 -138 -168
-156 -41 -11 -122 -12 -169 -1 -63 13 -132 63 -125 89 3 12 0 19 -9 19 -8 0
-14 7 -14 15 0 8 -5 14 -12 12 -29 -6 -42 57 -46 213 -3 101 -8 158 -16 163
-8 5 -7 10 4 17 13 8 12 10 -2 10 -10 0 -18 5 -18 10 0 6 7 10 15 10 13 0 15
20 15 120 0 98 3 122 15 126 16 6 21 34 7 34 -5 0 -9 14 -9 30 0 17 5 30 10
30 6 0 2 9 -7 19 -20 23 -14 41 14 41 12 0 22 9 26 25 3 13 12 29 19 35 8 6
12 17 9 24 -3 7 13 25 36 41 22 15 40 32 40 36 0 5 11 11 25 15 19 5 25 13 25
32 0 20 3 23 12 14 17 -17 25 -15 31 8 4 16 12 19 43 16 28 -3 39 -9 38 -20z
m-1215 -5 l23 -15 -23 -10 -24 -9 25 -5 c36 -6 45 -19 21 -31 -11 -6 -26 -21
-32 -32 -8 -17 -7 -24 8 -36 16 -13 16 -14 1 -9 -10 3 -21 -2 -27 -11 -7 -13
-28 -17 -108 -18 -54 -2 -121 -6 -149 -9 l-50 -7 -12 96 c-7 53 -10 101 -7
106 3 5 79 8 168 7 126 -1 167 -5 186 -17z m3684 5 c33 -13 34 -21 5 -31 -22
-7 -22 -7 -3 -12 47 -10 47 -13 14 -44 -31 -28 -32 -32 -16 -44 9 -7 17 -16
17 -20 0 -5 -3 -5 -7 -2 -3 4 -15 0 -25 -10 -14 -12 -44 -17 -135 -20 -65 -2
-131 -5 -148 -6 l-30 -2 -9 87 c-5 47 -6 93 -3 102 5 13 29 15 159 14 88 0
165 -5 181 -12z m-1883 -30 c4 -11 6 -24 3 -28 -2 -4 -4 -173 -4 -375 0 -202
-3 -362 -6 -354 -4 10 -7 10 -13 1 -4 -7 -1 -24 6 -39 17 -32 18 -91 2 -91 -6
0 0 -12 14 -27 45 -49 62 -82 49 -96 -8 -11 -6 -13 12 -13 15 1 21 -4 19 -16
-2 -12 8 -18 40 -23 24 -4 45 -11 48 -16 3 -5 14 1 24 12 17 21 17 21 -13 14
-32 -7 -45 10 -16 21 23 9 18 23 -12 30 l-26 7 34 28 34 28 -1 138 c0 76 -1
156 -1 178 -2 175 3 465 9 465 4 0 11 -7 16 -16 8 -14 10 -12 14 10 3 15 1 29
-4 32 -4 3 -6 10 -3 15 4 5 -1 12 -9 15 -16 6 -22 45 -8 58 4 4 8 12 8 17 1 5
2 12 3 15 0 4 8 1 16 -6 12 -10 18 -10 30 0 8 7 15 19 15 26 0 22 89 22 102 0
4 -6 8 -43 8 -83 0 -62 3 -74 22 -87 12 -8 25 -13 30 -10 5 3 24 0 43 -6 29
-10 35 -16 35 -40 0 -16 5 -32 10 -35 19 -12 10 -31 -21 -42 -31 -12 -58 -8
-72 11 -6 8 -10 7 -14 -1 -2 -7 -11 -13 -18 -13 -11 0 -13 -62 -14 -323 0
-262 -3 -332 -16 -366 -19 -56 -19 -59 5 -33 22 23 40 29 40 13 0 -16 -31 -41
-51 -41 -10 0 -37 -18 -60 -39 -72 -71 -132 -89 -260 -78 -72 6 -154 66 -193
142 l-31 60 -2 189 c-2 160 -4 191 -17 198 -21 12 -20 28 2 28 15 0 17 7 14
41 -4 34 -1 41 17 46 12 3 21 13 21 24 0 25 43 52 69 44 15 -5 19 -3 16 8 -6
15 -61 12 -71 -5 -3 -5 -12 -4 -20 3 -11 9 -14 9 -14 0 0 -7 -4 -10 -9 -7 -5
3 -9 91 -10 196 0 104 -2 195 -3 202 -2 9 13 13 50 14 29 1 54 3 57 6 13 12
67 -6 75 -26z m2140 20 c0 -3 -4 -8 -10 -11 -5 -3 -10 -1 -10 4 0 6 5 11 10
11 6 0 10 -2 10 -4z m-4650 -44 c0 -13 -12 -22 -22 -16 -10 6 -1 24 13 24 5 0
9 -4 9 -8z m1451 -15 c-13 -13 -26 -3 -16 12 3 6 11 8 17 5 6 -4 6 -10 -1 -17z
m3177 7 c37 -10 25 -19 -30 -22 -46 -3 -50 -1 -39 12 14 17 32 19 69 10z m114
-14 c-13 -10 -31 -17 -40 -14 -44 15 -45 18 -7 24 68 12 72 11 47 -10z m-4645
-9 c-2 -10 0 -26 5 -35 14 -25 -8 -20 -26 6 -22 31 -20 48 5 48 16 0 20 -5 16
-19z m1459 -19 c2 -36 -3 -40 -22 -14 -20 25 -18 54 3 50 12 -2 18 -14 19 -36z
m114 4 c0 -3 -4 -8 -10 -11 -5 -3 -10 -1 -10 4 0 6 5 11 10 11 6 0 10 -2 10
-4z m-45 -16 c-3 -5 -11 -10 -16 -10 -6 0 -7 5 -4 10 3 6 11 10 16 10 6 0 7
-4 4 -10z m2912 -13 c-6 -20 -27 -19 -27 2 0 14 5 19 15 14 9 -3 14 -10 12
-16z m-3767 -17 c0 -5 -4 -10 -10 -10 -5 0 -10 5 -10 10 0 6 5 10 10 10 6 0
10 -4 10 -10z m850 0 c0 -5 -5 -10 -11 -10 -5 0 -7 5 -4 10 3 6 8 10 11 10 2
0 4 -4 4 -10z m2845 0 c3 -5 -1 -10 -9 -10 -9 0 -16 5 -16 10 0 6 4 10 9 10 6
0 13 -4 16 -10z m-4367 -31 c-2 -6 -8 -10 -13 -10 -5 0 -11 4 -13 10 -2 6 4
11 13 11 9 0 15 -5 13 -11z m1462 2 c0 -5 -7 -11 -15 -15 -9 -3 -15 0 -15 9 0
8 7 15 15 15 8 0 15 -4 15 -9z m1650 -51 c0 -5 -4 -10 -10 -10 -5 0 -10 5 -10
10 0 6 5 10 10 10 6 0 10 -4 10 -10z m450 0 c0 -5 -5 -10 -11 -10 -5 0 -7 5
-4 10 3 6 8 10 11 10 2 0 4 -4 4 -10z m-483 -71 c25 -9 26 -11 10 -21 -23 -12
-47 -4 -47 17 0 18 1 18 37 4z m-2727 -33 c8 -2 -3 -4 -24 -3 -22 1 -41 8 -43
14 -4 12 7 10 67 -11z m2657 18 c-3 -3 -12 -4 -19 -1 -8 3 -5 6 6 6 11 1 17
-2 13 -5z m677 0 c22 -8 20 -21 -4 -29 -25 -8 -41 1 -33 20 6 16 13 18 37 9z
m-4235 -177 c1 -32 -4 -67 -9 -78 -7 -13 -7 -19 0 -19 5 0 10 7 10 15 0 8 7
15 15 15 8 0 15 -4 15 -10 0 -5 -6 -10 -12 -10 -9 0 -8 -4 2 -10 23 -15 30
-12 30 10 0 16 7 20 31 20 37 0 109 38 109 57 0 23 20 14 21 -9 1 -17 2 -19 6
-5 2 9 11 17 19 17 8 0 14 7 14 16 0 13 -3 14 -14 5 -11 -9 -15 -8 -20 5 -10
25 -7 37 8 31 8 -3 18 4 24 17 9 21 17 23 67 21 55 -2 74 -12 75 -42 0 -7 8
-13 18 -14 13 0 12 -2 -5 -9 -13 -5 -23 -12 -23 -16 0 -3 7 -4 15 0 21 8 19
-7 -4 -21 -11 -7 -22 -26 -26 -43 -4 -17 -22 -51 -42 -76 l-34 -46 15 -51 c8
-29 31 -119 51 -202 19 -82 40 -164 45 -181 23 -71 20 -74 -79 -74 -61 0 -92
4 -97 12 -5 7 -16 47 -25 88 -10 41 -32 135 -50 208 l-33 132 -58 0 -57 0 0
-212 c-1 -117 -5 -216 -9 -220 -5 -5 -47 -8 -93 -6 l-84 3 -2 263 c-2 249 -1
264 17 282 25 25 40 25 40 0 0 -11 5 -20 10 -20 6 0 10 5 10 10 0 14 27 12 33
-2 4 -10 7 -10 18 -1 10 10 9 16 -6 33 -10 11 -13 20 -8 20 6 0 13 9 16 19 3
13 1 18 -8 15 -7 -3 -15 -14 -18 -25 -4 -15 -13 -19 -36 -17 -37 3 -40 15 -6
28 14 5 25 14 25 20 0 18 52 33 62 18 5 -9 8 -10 8 -1 0 6 -4 14 -9 17 -14 9
-10 56 5 56 8 0 14 5 14 10 0 6 -5 10 -11 10 -8 0 -8 4 1 14 6 8 11 25 10 38
-4 44 3 43 11 -2 4 -25 8 -71 8 -103z m1451 91 c1 -29 3 -78 3 -110 0 -43 3
-55 14 -51 7 3 13 0 13 -6 0 -6 -10 -11 -22 -11 -26 0 -21 -5 13 -13 21 -6 28
-3 32 13 4 15 14 20 36 20 34 0 110 43 112 63 1 6 5 1 9 -13 5 -14 8 -18 9 -9
1 9 10 19 21 22 20 5 28 27 10 27 -5 0 -10 -5 -10 -11 0 -5 -4 -7 -10 -4 -16
10 -12 48 4 42 9 -4 16 3 20 17 5 20 11 22 58 21 61 -1 78 -8 78 -36 0 -11 7
-19 18 -20 16 -1 16 -2 0 -6 -10 -2 -18 -8 -18 -13 0 -5 7 -7 15 -4 8 4 15 1
15 -6 0 -6 -9 -14 -20 -17 -13 -3 -22 -17 -26 -39 -3 -19 -23 -53 -43 -76
l-37 -41 62 -246 c34 -135 60 -251 57 -258 -4 -9 -31 -13 -93 -13 l-88 0 -11
33 c-6 17 -13 48 -16 67 -3 19 -13 60 -22 90 -9 30 -26 98 -38 150 l-21 95
-57 3 -57 3 -1 -88 c-1 -48 -2 -146 -3 -218 l-1 -130 -92 -3 -93 -3 0 268 c0
233 2 269 17 285 17 19 49 26 38 8 -11 -18 6 -32 23 -18 12 10 16 10 19 1 6
-18 33 -16 33 1 0 8 -5 18 -10 21 -6 3 -8 18 -5 33 5 25 5 25 -4 5 -11 -24
-44 -30 -71 -13 -11 7 -9 11 13 19 15 6 27 14 27 19 0 13 50 33 63 26 8 -5 8
-3 0 6 -10 11 -9 18 5 34 9 11 11 16 5 12 -7 -4 -13 -2 -13 3 0 6 7 11 15 11
18 0 20 17 3 23 -10 3 -10 7 -2 18 6 8 9 26 7 42 -2 15 0 27 5 27 5 0 10 -24
12 -52z m1997 10 c-3 -8 -6 -5 -6 6 -1 11 2 17 5 13 3 -3 4 -12 1 -19z m-2392
-191 c1 -14 4 -29 8 -33 9 -9 -1 -24 -17 -24 -8 0 -16 14 -18 30 -3 17 -1 30
3 30 5 0 6 7 2 16 -4 12 -2 15 8 12 8 -3 14 -17 14 -31z m1345 23 c0 -5 -2
-10 -4 -10 -3 0 -8 5 -11 10 -3 6 -1 10 4 10 6 0 11 -4 11 -10z m2352 -40 c2
-26 -1 -35 -12 -35 -8 0 -15 7 -15 15 0 8 -4 21 -8 28 -5 8 -2 12 10 13 11 0
13 3 5 6 -6 2 -9 9 -6 15 10 16 22 -4 26 -42z m-3662 -13 c0 -5 -4 -5 -10 -2
-5 3 -10 14 -10 23 0 15 2 15 10 2 5 -8 10 -19 10 -23z m1654 18 c3 -9 0 -15
-9 -15 -8 0 -15 7 -15 15 0 8 4 15 9 15 5 0 11 -7 15 -15z m2036 -18 c0 -5 -4
-5 -10 -2 -5 3 -10 14 -10 23 0 15 2 15 10 2 5 -8 10 -19 10 -23z m-4317 -82
c-3 -8 -13 -15 -23 -15 -11 0 -22 -4 -25 -10 -3 -5 -10 -10 -16 -10 -5 0 -9 5
-9 10 0 6 6 10 13 10 8 0 22 9 32 20 19 21 37 18 28 -5z m1457 5 c0 -12 -69
-45 -77 -37 -3 4 3 10 13 14 10 3 23 12 27 20 9 15 37 18 37 3z m1660 -39 c0
-13 -26 -21 -65 -21 -30 0 -51 11 -40 21 8 9 105 9 105 0z m-3210 -21 c-16
-11 -40 -13 -40 -5 0 8 44 24 50 18 2 -2 -2 -8 -10 -13z m1450 0 c-8 -6 -22
-10 -30 -9 -9 0 -5 6 10 14 27 14 44 10 20 -5z m1660 -40 c0 -5 -7 -10 -15
-10 -8 0 -15 5 -15 10 0 6 7 10 15 10 8 0 15 -4 15 -10z m107 -176 c-3 -3 -12
-4 -19 -1 -8 3 -5 6 6 6 11 1 17 -2 13 -5z m-67 -44 c0 -13 -23 -18 -45 -10
-19 7 -19 8 5 18 26 10 40 7 40 -8z m80 16 c0 -11 -19 -15 -25 -6 -3 5 1 10 9
10 9 0 16 -2 16 -4z m-2506 -96 c0 -80 -2 -85 -22 -88 -17 -3 -22 2 -22 20 -1
29 -25 64 -35 48 -3 -6 -4 -24 0 -40 5 -21 3 -30 -7 -31 -7 0 -40 -2 -73 -3
-33 -2 -67 0 -76 5 -9 4 -20 4 -25 -1 -5 -5 -10 29 -11 86 l-2 95 137 -3 137
-3 -1 -85z m3694 3 c-3 -83 -4 -88 -25 -91 -18 -3 -23 2 -23 18 0 29 -19 62
-31 55 -5 -4 -6 -23 -3 -44 l6 -37 -84 3 c-45 1 -90 3 -98 4 -12 0 -15 19 -17
90 l-2 89 139 0 140 0 -2 -87z m-1368 47 c0 -5 -4 -10 -10 -10 -5 0 -10 5 -10
10 0 6 5 10 10 10 6 0 10 -4 10 -10z m-2900 -219 c0 -12 -20 -25 -27 -18 -7 7
6 27 18 27 5 0 9 -4 9 -9z m1455 -12 c-4 -5 -13 -9 -20 -9 -8 0 -22 -11 -31
-25 -9 -14 -20 -22 -25 -19 -16 10 -9 21 29 46 35 24 59 28 47 7z m-1511 -36
c-16 -24 -19 -25 -22 -10 -2 10 5 25 15 32 26 19 29 10 7 -22z m676 -33 c0 -5
-7 -10 -15 -10 -8 0 -15 5 -15 10 0 6 7 10 15 10 8 0 15 -4 15 -10z m3690 0
c0 -5 -4 -10 -10 -10 -5 0 -10 5 -10 10 0 6 5 10 10 10 6 0 10 -4 10 -10z
m-3755 -10 c-3 -5 -18 -10 -33 -10 -21 0 -24 2 -12 10 20 13 53 13 45 0z m135
1 c0 -5 -7 -11 -15 -15 -9 -3 -15 0 -15 9 0 8 7 15 15 15 8 0 15 -4 15 -9z
m3555 -1 c-3 -5 -18 -10 -33 -10 -21 0 -24 2 -12 10 20 13 53 13 45 0z m133
-2 c-6 -18 -28 -21 -28 -4 0 9 7 16 16 16 9 0 14 -5 12 -12z m-4148 -478 c0
-313 0 -320 -20 -320 -20 0 -20 7 -20 320 0 313 0 320 20 320 20 0 20 -7 20
-320z m1788 -133 c-2 -112 -7 -176 -13 -175 -5 2 -9 6 -7 11 3 11 -11 8 -32
-8 -46 -35 -117 -9 -142 52 -41 96 63 194 144 137 l22 -15 0 89 c0 49 3 92 7
95 18 19 23 -24 21 -186z m342 148 c0 -12 -13 -15 -55 -15 l-55 0 0 -60 0 -60
55 0 c30 0 55 -4 55 -10 0 -5 -25 -10 -55 -10 l-55 0 0 -84 c0 -47 -4 -88 -10
-91 -7 -4 -10 55 -10 169 l0 176 65 0 c51 0 65 -3 65 -15z m100 -49 c0 -21
-21 -31 -30 -15 -5 7 -6 17 -4 21 9 14 34 9 34 -6z m-1869 -66 c25 0 25 -16
-1 -23 -18 -5 -20 -14 -20 -102 0 -61 -4 -94 -10 -90 -6 3 -10 48 -10 100 0
65 -4 95 -12 99 -10 5 -10 7 0 12 6 3 12 18 12 33 0 42 15 48 18 7 3 -28 8
-36 23 -36z m939 35 c0 -28 4 -35 20 -35 11 0 20 -4 20 -10 0 -5 -9 -10 -20
-10 -19 0 -20 -7 -20 -100 0 -60 -4 -100 -10 -100 -6 0 -10 40 -10 99 0 70 -4
101 -12 105 -10 5 -10 7 0 12 6 3 12 21 12 40 0 19 5 34 10 34 6 0 10 -16 10
-35z m1020 0 c0 -28 4 -35 20 -35 11 0 20 -4 20 -9 0 -5 -9 -11 -20 -14 -18
-5 -20 -14 -20 -102 0 -61 -4 -94 -10 -90 -6 3 -10 48 -10 100 0 65 -4 95 -12
99 -10 5 -10 7 0 12 6 3 12 21 12 40 0 19 5 34 10 34 6 0 10 -16 10 -35z
m-2170 -45 c25 16 66 11 86 -11 14 -16 20 -40 23 -101 2 -50 -1 -84 -8 -91 -8
-8 -11 9 -11 64 0 86 -15 123 -50 127 -46 4 -55 -11 -60 -105 -3 -49 -9 -88
-15 -88 -11 0 -20 178 -10 203 4 10 9 11 18 4 8 -7 18 -7 27 -2z m405 -6 c20
-13 45 -60 45 -85 0 -5 -40 -9 -90 -9 -49 0 -90 -4 -90 -9 0 -72 103 -102 146
-43 15 20 27 12 18 -12 -8 -20 -55 -46 -84 -46 -58 0 -99 47 -100 113 0 40 5
53 29 78 34 33 86 39 126 13z m233 0 c20 -14 22 -14 22 0 0 9 5 16 10 16 6 0
10 -52 10 -136 l0 -136 -29 -29 c-43 -43 -121 -38 -158 10 -15 19 -17 51 -3
51 6 0 10 -6 10 -14 0 -22 49 -56 80 -56 42 0 70 29 77 79 l6 43 -31 -16 c-45
-23 -78 -20 -114 13 -29 26 -33 35 -33 81 0 46 4 55 33 81 37 33 84 38 120 13z
m132 4 c0 -9 3 -9 12 0 14 14 58 16 58 3 0 -5 -12 -11 -27 -13 -33 -4 -41 -26
-42 -126 -1 -46 -5 -71 -11 -67 -6 3 -10 52 -10 111 0 63 4 104 10 104 6 0 10
-5 10 -12z m245 -4 c23 -15 25 -15 25 0 0 9 5 16 10 16 6 0 10 -43 10 -110 0
-67 -4 -110 -10 -110 -5 0 -10 9 -10 21 0 19 -1 19 -16 5 -32 -33 -99 -32
-136 1 -10 8 -22 31 -28 49 -32 96 73 182 155 128z m349 -6 c15 -13 29 -38 32
-55 l7 -33 -87 0 c-84 0 -86 -1 -86 -23 0 -56 94 -84 130 -39 21 25 30 28 30
8 0 -8 -12 -24 -26 -35 -64 -50 -151 -6 -161 82 -5 43 -3 49 30 82 43 43 92
48 131 13z m706 -89 c0 -71 -4 -108 -10 -104 -6 3 -10 52 -10 111 0 63 4 104
10 104 6 0 10 -44 10 -111z m193 88 c-3 -7 3 -4 14 6 25 22 71 22 95 0 15 -13
18 -32 18 -110 0 -60 -4 -92 -10 -88 -5 3 -10 43 -10 89 0 86 -8 106 -44 106
-43 0 -51 -15 -56 -107 -3 -49 -9 -88 -15 -88 -11 0 -20 178 -10 202 2 8 9 11
15 8 6 -4 7 -12 3 -18z m348 -6 c17 -17 29 -40 29 -55 0 -26 0 -26 -85 -26
-77 0 -85 -2 -85 -19 0 -60 87 -86 135 -41 20 19 25 20 25 7 0 -24 -49 -57
-86 -57 -23 0 -44 9 -66 29 -28 25 -32 34 -32 81 0 47 4 56 32 81 44 40 93 39
133 0z m174 9 c20 -22 6 -27 -24 -8 -15 9 -23 9 -35 -1 -27 -22 -18 -41 29
-61 51 -22 66 -55 44 -96 -24 -45 -94 -42 -119 6 -9 16 -8 20 5 20 8 0 15 -4
15 -10 0 -5 9 -14 21 -20 16 -9 26 -8 45 5 38 25 30 50 -23 76 -54 27 -66 58
-37 90 22 25 56 24 79 -1z m170 0 c20 -22 6 -27 -24 -8 -24 15 -51 4 -51 -22
0 -15 12 -26 44 -39 42 -19 56 -36 56 -70 0 -27 -38 -61 -67 -61 -25 0 -73 34
-73 52 0 14 19 9 40 -12 25 -25 35 -25 61 1 27 27 21 38 -32 69 -33 20 -45 33
-47 55 -6 51 57 75 93 35z m-3925 -5121 c3 -48 8 -79 13 -71 11 17 63 15 81
-4 12 -11 16 -36 16 -90 0 -66 -2 -75 -17 -72 -15 3 -19 17 -23 73 -4 61 -8
70 -26 73 -31 4 -43 -17 -46 -83 -2 -45 -7 -60 -18 -60 -13 0 -15 25 -18 150
-3 156 0 179 21 173 8 -3 14 -34 17 -89z m1410 -74 c0 -140 -2 -165 -15 -165
-8 0 -15 5 -15 10 0 7 -6 7 -19 0 -57 -30 -121 11 -121 78 0 70 63 112 121 82
18 -10 19 -7 19 68 0 76 4 92 22 92 4 0 8 -74 8 -165z m4130 56 l5 -102 29 30
c27 29 66 42 66 23 0 -5 -13 -18 -30 -30 -16 -13 -30 -28 -30 -35 0 -8 16 -32
35 -54 40 -47 42 -53 16 -53 -11 0 -34 19 -53 42 l-33 42 -5 -39 c-3 -27 -10
-40 -20 -40 -13 0 -15 25 -18 150 -3 156 0 179 21 173 8 -3 14 -38 17 -107z
m170 0 l5 -102 29 30 c27 29 66 42 66 23 0 -5 -13 -18 -30 -30 -16 -13 -30
-28 -30 -35 0 -7 16 -32 36 -57 31 -39 33 -45 18 -49 -12 -2 -32 12 -56 40
l-37 43 -3 -40 c-2 -27 -8 -39 -18 -39 -13 0 -15 25 -18 150 -3 156 0 179 21
173 8 -3 14 -38 17 -107z m-6689 50 c19 -15 21 -22 12 -32 -10 -10 -15 -10
-27 0 -8 7 -27 11 -43 9 -22 -2 -28 -8 -28 -28 0 -20 10 -31 49 -51 58 -31 66
-43 66 -91 0 -71 -93 -106 -145 -53 -14 13 -25 31 -25 40 0 21 27 19 40 -4 21
-40 81 -34 95 9 9 27 -8 46 -66 75 -66 34 -78 77 -34 120 29 30 74 32 106 6z
m1377 3 c28 -19 29 -65 2 -89 -25 -23 -25 -28 4 -62 24 -27 24 -28 45 -9 19
17 21 17 27 2 4 -9 0 -24 -9 -34 -14 -15 -14 -19 4 -41 10 -13 19 -27 19 -32
0 -16 -26 -10 -45 11 -17 19 -18 19 -43 0 -86 -68 -193 44 -113 118 28 25 29
29 16 52 -20 35 -18 50 7 77 25 27 54 29 86 7z m406 6 c16 -6 26 -17 26 -30 0
-17 -3 -19 -19 -10 -11 5 -38 10 -61 10 -92 0 -135 -110 -71 -182 22 -25 36
-32 67 -32 22 -1 49 3 62 7 18 7 22 5 22 -12 0 -15 -9 -22 -36 -27 -56 -10
-104 2 -141 38 -57 55 -57 148 0 201 50 46 97 58 151 37z m2006 -175 c0 -158
-2 -185 -15 -185 -13 0 -15 27 -15 185 0 158 2 185 15 185 13 0 15 -27 15
-185z m355 163 c24 -19 25 -22 10 -31 -11 -6 -21 -5 -28 2 -19 19 -65 13 -72
-9 -9 -27 0 -37 50 -61 56 -26 69 -43 69 -86 0 -74 -97 -111 -149 -58 -30 29
-32 55 -5 55 11 0 20 -7 20 -15 0 -9 11 -20 25 -27 43 -20 93 30 67 68 -4 6
-31 23 -60 39 -57 31 -72 59 -53 101 20 45 83 56 126 22z m1675 -163 c0 -158
-2 -185 -15 -185 -13 0 -15 27 -15 185 0 158 2 185 15 185 13 0 15 -27 15
-185z m-3342 147 c2 -14 -2 -22 -12 -22 -19 0 -29 17 -22 36 8 22 30 12 34
-14z m190 5 c4 -20 -25 -34 -40 -19 -15 15 -1 44 19 40 10 -2 19 -11 21 -21z
m480 0 c4 -20 -25 -34 -40 -19 -15 15 -1 44 19 40 10 -2 19 -11 21 -21z m1370
0 c4 -20 -25 -34 -40 -19 -15 15 -1 44 19 40 10 -2 19 -11 21 -21z m649 12
c14 -14 6 -39 -12 -39 -18 0 -28 17 -21 35 6 18 18 19 33 4z m1013 -4 c0 -10
-10 -15 -32 -15 l-33 0 0 -122 c0 -109 -2 -123 -17 -126 -16 -3 -18 8 -18 122
l0 126 -35 0 c-24 0 -35 5 -35 15 0 12 16 15 85 15 69 0 85 -3 85 -15z m688
-8 c4 -20 -25 -34 -40 -19 -15 15 -1 44 19 40 10 -2 19 -11 21 -21z m-6768
-46 c0 -20 6 -30 20 -34 11 -3 20 -10 20 -15 0 -5 -9 -12 -20 -15 -18 -5 -20
-14 -20 -76 0 -56 -3 -71 -15 -71 -12 0 -15 14 -15 65 0 36 -6 75 -12 86 -10
17 -10 23 0 26 6 3 12 18 12 34 0 19 5 29 15 29 10 0 15 -10 15 -29z m790 -1
c0 -23 4 -30 20 -30 11 0 20 -6 20 -14 0 -7 -9 -16 -20 -19 -18 -5 -20 -14
-20 -77 0 -53 -3 -71 -12 -68 -8 3 -14 29 -16 68 -2 36 -8 70 -14 78 -8 9 -8
16 0 24 7 7 12 25 12 40 0 18 5 28 15 28 10 0 15 -10 15 -30z m1680 0 c0 -20
5 -30 15 -30 19 0 20 -26 0 -33 -10 -4 -15 -26 -17 -73 -2 -43 -8 -69 -15 -72
-10 -3 -13 14 -13 62 0 37 -6 76 -12 87 -10 17 -10 23 0 26 6 3 12 18 12 34 0
19 5 29 15 29 10 0 15 -10 15 -30z m-2380 -42 c0 -9 3 -9 12 0 19 19 60 15 56
-5 -2 -12 -11 -17 -24 -15 -31 4 -43 -17 -46 -83 -2 -45 -7 -60 -18 -60 -12 0
-16 16 -18 74 -2 41 -1 80 2 88 7 16 36 17 36 1z m220 -10 c11 -12 20 -34 20
-50 0 -28 0 -28 -66 -28 l-66 0 14 -22 c19 -29 54 -34 79 -12 16 14 22 15 32
5 18 -18 -26 -51 -70 -51 -73 0 -111 92 -62 154 27 34 88 37 119 4z m80 10 c0
-9 3 -9 12 0 7 7 27 12 44 12 48 0 64 -29 64 -112 0 -61 -2 -68 -20 -68 -17 0
-19 8 -22 73 -3 70 -4 72 -30 75 -34 4 -48 -25 -48 -99 0 -37 -4 -49 -15 -49
-12 0 -15 17 -15 90 0 73 3 90 15 90 8 0 15 -5 15 -12z m270 2 c9 -6 17 -5 21
2 4 6 15 8 24 4 15 -5 17 -19 13 -109 -4 -133 -18 -157 -85 -157 -53 0 -83 20
-83 57 0 29 22 30 35 1 13 -30 64 -37 82 -12 7 10 13 28 13 41 0 20 -3 22 -19
13 -58 -31 -121 11 -121 80 0 68 68 113 120 80z m1222 -17 c38 -36 39 -93 2
-130 -22 -22 -32 -25 -71 -20 -74 8 -104 68 -68 137 17 33 27 38 74 39 25 1
43 -7 63 -26z m193 3 c22 -32 17 -151 -5 -151 -11 0 -16 17 -20 70 l-5 70 -30
0 -30 0 -5 -70 c-4 -53 -9 -70 -20 -70 -12 0 -16 17 -18 86 l-3 85 60 2 c54 2
62 -1 76 -22z m303 -63 c-2 -70 -6 -88 -18 -88 -12 0 -16 16 -18 74 -3 84 1
101 23 101 13 0 15 -13 13 -87z m182 -4 c0 -81 -2 -90 -17 -87 -15 3 -19 16
-21 77 -3 83 1 101 23 101 12 0 15 -16 15 -91z m192 64 c61 -58 21 -153 -64
-153 -54 0 -88 35 -88 90 0 84 91 122 152 63z m88 15 c0 -9 3 -9 12 0 7 7 27
12 44 12 48 0 64 -29 64 -112 0 -61 -2 -68 -20 -68 -17 0 -19 8 -22 73 -3 70
-4 72 -30 75 -34 4 -48 -25 -48 -99 0 -36 -4 -49 -12 -47 -9 3 -14 33 -16 91
-2 73 0 87 13 87 8 0 15 -5 15 -12z m200 -78 c0 -73 -3 -90 -15 -90 -12 0 -15
17 -15 90 0 73 3 90 15 90 12 0 15 -17 15 -90z m90 78 c0 -9 3 -9 12 0 17 17
64 15 82 -4 12 -11 16 -36 16 -90 0 -66 -2 -75 -17 -72 -15 3 -19 17 -23 73
-4 61 -8 70 -26 73 -31 4 -43 -17 -46 -83 -2 -45 -7 -60 -18 -60 -12 0 -16 16
-18 74 -2 41 -1 80 2 88 7 16 36 17 36 1z m268 0 c9 -9 12 -9 12 0 0 7 9 12
21 12 20 0 21 -4 18 -114 -5 -136 -15 -156 -85 -156 -47 0 -84 28 -84 62 0 27
29 22 40 -7 7 -19 17 -25 38 -25 36 0 52 16 52 54 0 23 -3 27 -12 18 -19 -19
-76 -14 -98 8 -38 38 -38 96 0 138 23 24 78 30 98 10z m744 -40 l26 -53 23 53
c13 28 26 52 29 52 3 0 13 -23 23 -50 10 -28 22 -48 27 -45 5 3 18 26 29 50
11 26 27 45 35 45 23 0 20 -12 -25 -103 l-42 -82 -24 55 -25 55 -26 -55 -25
-54 -44 88 c-23 49 -43 91 -43 92 0 2 8 4 18 4 12 0 27 -18 44 -52z m268 -38
c0 -73 -3 -90 -15 -90 -12 0 -15 17 -15 90 0 73 3 90 15 90 12 0 15 -17 15
-90z m171 74 c14 -13 17 -13 22 1 4 9 19 15 41 15 46 0 56 -20 56 -109 0 -56
-3 -71 -15 -71 -12 0 -15 13 -15 56 0 60 -13 94 -35 94 -23 0 -35 -34 -35 -95
0 -48 -3 -56 -17 -53 -15 3 -19 17 -23 73 -4 63 -7 70 -27 73 -25 4 -31 -12
-35 -93 -2 -37 -7 -50 -18 -50 -12 0 -16 18 -18 86 l-3 87 53 0 c32 0 59 -6
69 -14z m199 6 c0 -6 8 -5 20 2 15 9 27 10 49 2 17 -7 35 -8 42 -3 20 13 63
11 77 -3 7 -7 12 -43 12 -90 0 -63 -3 -78 -15 -78 -12 0 -15 13 -15 59 0 72
-6 91 -31 91 -26 0 -39 -30 -39 -94 0 -43 -3 -56 -15 -56 -12 0 -15 13 -15 56
0 64 -13 94 -40 94 -22 0 -28 -19 -32 -95 -2 -37 -7 -50 -18 -50 -12 0 -16 16
-18 74 -2 41 -1 80 2 88 6 15 36 18 36 3z m288 -77 c-2 -70 -6 -88 -18 -88
-12 0 -16 18 -18 88 -3 82 -2 87 18 87 20 0 21 -5 18 -87z m82 75 c0 -9 3 -9
12 0 22 22 76 15 93 -12 23 -34 17 -149 -7 -154 -15 -3 -18 7 -20 70 -3 69 -4
73 -27 76 -36 5 -51 -22 -51 -90 0 -45 -3 -58 -15 -58 -12 0 -15 17 -15 90 0
73 3 90 15 90 8 0 15 -5 15 -12z m272 -5 c17 -15 18 -15 18 0 0 10 7 17 15 17
12 0 15 -19 15 -113 0 -143 -9 -159 -82 -155 -42 2 -55 8 -71 31 -17 22 -18
29 -8 40 10 10 16 7 33 -15 36 -51 98 -31 98 31 0 22 -14 28 -25 11 -11 -18
-68 -11 -92 12 -32 30 -32 102 -1 135 26 27 73 30 100 6z m688 5 c0 -9 3 -9
12 0 17 17 58 15 58 -3 0 -9 -9 -15 -25 -15 -32 0 -45 -26 -45 -95 0 -48 -3
-56 -17 -53 -15 3 -19 16 -21 77 -2 41 -1 80 2 88 7 16 36 17 36 1z m219 -14
c12 -15 21 -37 21 -50 0 -23 -4 -24 -60 -24 -43 0 -60 -4 -60 -13 0 -36 51
-49 82 -20 15 13 21 14 31 4 18 -18 -26 -51 -70 -51 -73 0 -111 92 -62 154 29
37 89 37 118 0z m431 -64 c0 -73 -3 -90 -15 -90 -12 0 -15 17 -15 90 0 73 3
90 15 90 12 0 15 -17 15 -90z m90 78 c0 -9 3 -9 12 0 17 17 58 15 80 -5 14
-13 18 -31 18 -90 0 -66 -2 -74 -17 -71 -15 3 -19 17 -23 73 -4 61 -8 70 -26
73 -31 4 -43 -17 -46 -83 -2 -45 -7 -60 -18 -60 -12 0 -16 18 -18 88 -3 82 -2
87 18 87 11 0 20 -5 20 -12z m261 2 c13 -7 19 -7 19 0 0 5 9 10 21 10 20 0 21
-4 17 -114 -4 -139 -14 -156 -89 -156 -38 0 -51 5 -63 22 -9 12 -16 30 -16 40
0 27 25 22 38 -7 8 -18 19 -25 40 -25 36 0 52 16 52 52 0 25 -2 27 -19 18 -30
-15 -66 -12 -92 9 -20 16 -24 29 -24 71 0 42 4 55 24 71 26 21 62 24 92 9z"/>
<path d="M6411 8114 c0 -11 3 -14 6 -6 3 7 2 16 -1 19 -3 4 -6 -2 -5 -13z"/>
<path d="M5881 8017 c-12 -15 -5 -27 16 -27 7 0 13 9 13 20 0 23 -13 26 -29 7z"/>
<path d="M6323 8019 c10 -6 25 -8 33 -5 17 6 18 1 3 -26 -9 -16 -8 -19 3 -16
7 3 14 17 16 31 3 25 1 27 -35 27 -31 -1 -35 -2 -20 -11z"/>
<path d="M6500 7950 c0 -5 5 -10 11 -10 5 0 7 5 4 10 -3 6 -8 10 -11 10 -2 0
-4 -4 -4 -10z"/>
<path d="M6480 7850 c0 -5 5 -10 11 -10 5 0 7 5 4 10 -3 6 -8 10 -11 10 -2 0
-4 -4 -4 -10z"/>
<path d="M6405 7810 c-8 -13 4 -32 16 -25 12 8 12 35 0 35 -6 0 -13 -4 -16
-10z"/>
<path d="M6500 7793 c8 -3 19 -12 23 -20 11 -17 28 -7 20 12 -3 8 -17 15 -32
14 -15 0 -20 -3 -11 -6z"/>
<path d="M6449 7697 c7 -10 9 -17 3 -17 -12 0 -3 -42 12 -52 6 -4 16 -2 23 3
16 14 0 50 -30 69 -20 12 -21 12 -8 -3z"/>
<path d="M6790 7689 c0 -5 5 -7 10 -4 6 3 10 8 10 11 0 2 -4 4 -10 4 -5 0 -10
-5 -10 -11z"/>
<path d="M5920 7490 c0 -5 -10 -11 -22 -11 -19 -1 -19 -2 -5 -6 26 -7 69 6 62
17 -8 13 -35 13 -35 0z"/>
<path d="M5940 7154 c0 -14 3 -15 18 -3 9 7 19 15 21 16 2 2 -5 3 -17 3 -14 0
-22 -6 -22 -16z"/>
<path d="M2480 8163 c1 -18 18 -35 24 -24 4 6 4 16 1 21 -7 12 -25 13 -25 3z"/>
<path d="M2239 8097 c7 -7 14 -8 21 -1 6 6 2 10 -12 11 -16 2 -18 -1 -9 -10z"/>
<path d="M3941 8153 c7 -10 15 -20 16 -22 2 -2 3 5 3 17 0 14 -6 22 -16 22
-14 0 -15 -3 -3 -17z"/>
<path d="M3519 8094 c-6 -8 -8 -15 -3 -15 5 -1 15 -2 22 -3 7 0 17 -8 22 -16
8 -12 10 -9 10 11 0 31 -32 45 -51 23z"/>
<path d="M3695 8100 c3 -5 12 -7 20 -3 21 7 19 13 -6 13 -11 0 -18 -4 -14 -10z"/>
<path d="M2800 7950 c0 -5 7 -10 16 -10 8 0 12 5 9 10 -3 6 -10 10 -16 10 -5
0 -9 -4 -9 -10z"/>
<path d="M2790 7850 c0 -5 5 -10 11 -10 5 0 7 5 4 10 -3 6 -8 10 -11 10 -2 0
-4 -4 -4 -10z"/>
<path d="M2713 7805 c-3 -9 -3 -18 0 -21 9 -9 27 6 27 22 0 19 -19 18 -27 -1z"/>
<path d="M2813 7794 c9 -3 17 -12 17 -20 0 -8 5 -14 11 -14 23 0 3 35 -21 37
-15 1 -18 0 -7 -3z"/>
<path d="M2764 7684 c-13 -5 -6 -51 8 -60 17 -11 31 13 24 40 -6 26 -11 29
-32 20z"/>
<path d="M4198 7858 c-7 -16 7 -45 14 -32 3 5 2 18 -2 28 -5 16 -8 17 -12 4z"/>
<path d="M4193 7420 c0 -41 2 -58 4 -37 2 20 2 54 0 75 -2 20 -4 3 -4 -38z"/>
<path d="M4192 7300 c0 -14 2 -19 5 -12 2 6 2 18 0 25 -3 6 -5 1 -5 -13z"/>
<path d="M4497 7073 c-4 -3 -7 -13 -7 -22 0 -13 2 -13 9 -2 5 7 14 10 20 7 6
-4 11 0 11 8 0 16 -21 22 -33 9z"/>
<path d="M4934 8009 l1 -46 27 21 c34 26 35 36 4 30 -19 -3 -25 1 -29 18 -2
13 -3 2 -3 -23z"/>
<path d="M4976 7963 c11 -45 25 -51 22 -10 -2 22 -8 37 -16 37 -8 0 -10 -9 -6
-27z"/>
<path d="M5487 7984 c-3 -3 -3 -12 0 -20 3 -8 -1 -14 -11 -14 -27 0 -18 -15
18 -31 32 -15 36 -15 41 0 3 8 -1 21 -9 27 -9 6 -16 19 -16 28 0 16 -11 21
-23 10z"/>
<path d="M5565 7930 c3 -5 8 -10 11 -10 2 0 4 5 4 10 0 6 -5 10 -11 10 -5 0
-7 -4 -4 -10z"/>
<path d="M4991 7894 c0 -11 3 -14 6 -6 3 7 2 16 -1 19 -3 4 -6 -2 -5 -13z"/>
<path d="M4925 7889 c-4 -6 -1 -15 6 -20 21 -13 31 -11 27 8 -4 20 -24 28 -33
12z"/>
<path d="M4990 7844 c0 -14 4 -23 9 -20 5 3 7 15 4 26 -7 28 -13 25 -13 -6z"/>
<path d="M5000 7747 c0 -19 10 -27 25 -20 17 6 8 33 -11 33 -8 0 -14 -6 -14
-13z"/>
<path d="M5006 7675 c-3 -8 -1 -15 4 -15 6 0 10 7 10 15 0 8 -2 15 -4 15 -2 0
-6 -7 -10 -15z"/>
<path d="M4950 7628 c-12 -22 -12 -22 6 -6 10 10 15 20 12 24 -4 3 -12 -5 -18
-18z"/>
<path d="M4942 7548 c2 -16 6 -24 11 -19 5 5 5 17 -2 28 -9 16 -10 15 -9 -9z"/>
<path d="M5341 7265 c1 -19 18 -51 18 -35 0 8 -4 22 -9 30 -5 8 -9 11 -9 5z"/>
<path d="M5035 7240 c3 -5 8 -10 11 -10 2 0 4 5 4 10 0 6 -5 10 -11 10 -5 0
-7 -4 -4 -10z"/>
<path d="M5013 7193 c-15 -5 -17 -23 -4 -23 5 0 11 7 15 15 3 8 4 15 3 14 -1
0 -8 -3 -14 -6z"/>
<path d="M5110 7060 c6 -11 15 -18 21 -15 5 4 3 12 -5 21 -21 20 -28 17 -16
-6z"/>
<path d="M5066 7061 c-4 -5 -2 -12 3 -15 5 -4 12 -2 15 3 4 5 2 12 -3 15 -5 4
-12 2 -15 -3z"/>
<path d="M2205 7630 c3 -5 8 -10 11 -10 2 0 4 5 4 10 0 6 -5 10 -11 10 -5 0
-7 -4 -4 -10z"/>
<path d="M2250 7610 c-8 -5 -22 -7 -31 -4 -12 3 -18 -3 -21 -21 -6 -31 -5 -31
35 -3 18 13 34 24 36 25 2 2 2 5 0 7 -3 3 -11 1 -19 -4z"/>
<path d="M2318 7540 c-7 -24 -3 -38 8 -28 3 4 4 17 2 30 l-3 23 -7 -25z"/>
<path d="M2096 7534 c-3 -8 1 -17 10 -21 22 -8 29 4 11 21 -13 14 -16 14 -21
0z"/>
<path d="M1983 7266 c-9 -11 -8 -15 7 -19 23 -6 30 0 23 19 -6 17 -14 17 -30
0z"/>
<path d="M3650 7636 c0 -2 7 -7 16 -10 8 -3 12 -2 9 4 -6 10 -25 14 -25 6z"/>
<path d="M3654 7583 c-2 -24 7 -22 49 9 17 13 16 14 -15 14 -27 0 -33 -4 -34
-23z"/>
<path d="M3550 7541 c0 -22 17 -37 28 -26 4 4 1 10 -6 12 -6 3 -10 9 -7 13 3
5 1 11 -5 15 -5 3 -10 -3 -10 -14z"/>
<path d="M3770 7536 c0 -14 5 -26 10 -26 6 0 10 9 10 19 0 11 -4 23 -10 26 -6
4 -10 -5 -10 -19z"/>
<path d="M3450 7271 c0 -5 -8 -11 -17 -13 -13 -3 -10 -6 9 -9 21 -5 26 -2 25
13 -1 18 -17 26 -17 9z"/>
<path d="M3002 7160 c0 -14 2 -19 5 -12 2 6 2 18 0 25 -3 6 -5 1 -5 -13z"/>
<path d="M6690 7166 c0 -8 5 -18 10 -21 6 -3 10 1 10 9 0 8 -4 18 -10 21 -5 3
-10 -1 -10 -9z"/>
<path d="M4507 6249 c-11 -6 -25 -26 -33 -45 -37 -88 69 -163 132 -93 9 10 17
36 18 60 1 33 -5 45 -27 65 -30 26 -61 30 -90 13z"/>
<path d="M3305 6235 c-40 -39 -32 -45 56 -45 86 0 87 2 46 48 -27 30 -71 29
-102 -3z"/>
<path d="M3535 6228 c-22 -26 -26 -39 -21 -67 7 -47 37 -75 81 -75 46 0 66 21
72 77 5 39 2 49 -20 71 -37 37 -78 35 -112 -6z"/>
<path d="M3915 6235 c-17 -16 -25 -35 -25 -59 0 -48 8 -65 41 -82 83 -42 159
70 94 140 -32 34 -77 35 -110 1z"/>
<path d="M4266 6239 c-47 -37 -35 -49 49 -49 82 0 89 7 50 45 -30 30 -64 32
-99 4z"/>
<path d="M5506 6239 c-47 -37 -35 -49 49 -49 82 0 89 7 50 45 -30 30 -64 32
-99 4z"/>
<path d="M3330 1034 c-20 -23 -16 -75 5 -90 40 -30 85 -5 85 46 0 52 -60 81
-90 44z"/>
<path d="M2377 1153 c-12 -11 -8 -40 7 -52 11 -9 18 -8 30 4 19 20 20 27 4 43
-13 13 -31 16 -41 5z"/>
<path d="M2357 1016 c-32 -30 -33 -40 -7 -66 24 -24 38 -25 68 -4 28 19 27 22
-7 62 l-28 32 -26 -24z"/>
<path d="M1382 1038 c-21 -21 -13 -28 33 -28 43 0 45 1 35 20 -12 22 -49 27
-68 8z"/>
<path d="M1750 1034 c-8 -8 -13 -28 -13 -44 0 -16 5 -36 13 -44 29 -36 90 -5
90 46 0 48 -62 77 -90 42z"/>
<path d="M2954 1042 c-51 -34 -29 -112 32 -112 20 0 54 37 54 58 0 40 -56 75
-86 54z"/>
<path d="M3810 1030 c-11 -11 -20 -29 -20 -40 0 -11 9 -29 20 -40 11 -11 29
-20 40 -20 25 0 60 34 60 58 0 23 -40 62 -63 62 -9 0 -26 -9 -37 -20z"/>
<path d="M4486 1034 c-34 -33 -10 -104 34 -104 42 0 64 56 40 101 -13 23 -53
25 -74 3z"/>
<path d="M6506 1028 c-21 -30 -20 -61 2 -81 38 -34 92 -8 92 45 0 52 -65 77
-94 36z"/>
<path d="M7402 1038 c-21 -21 -13 -28 33 -28 43 0 45 1 35 20 -12 22 -49 27
-68 8z"/>
<path d="M8202 1038 c-7 -7 -12 -28 -12 -48 0 -41 14 -60 46 -60 31 0 54 26
54 60 0 49 -56 80 -88 48z"/>
<path d="M470 5036 c0 -2 8 -10 18 -17 15 -13 16 -12 3 4 -13 16 -21 21 -21
13z"/>
<path d="M555 5001 c-8 -14 16 -26 43 -22 15 1 32 -6 44 -19 11 -12 23 -19 26
-15 3 3 -10 19 -29 35 -34 29 -73 39 -84 21z"/>
<path d="M640 4931 c0 -12 55 -43 63 -35 3 3 19 -2 36 -11 17 -9 31 -11 31 -5
0 20 -41 50 -69 50 -16 0 -36 3 -45 6 -9 3 -16 1 -16 -5z"/>
<path d="M775 4843 c6 -5 30 -25 54 -43 63 -48 103 -107 96 -140 -5 -23 2 -33
52 -75 32 -27 95 -84 140 -128 73 -70 86 -78 115 -76 18 2 39 -1 46 -5 16 -10
30 1 16 12 -77 68 -143 120 -209 167 -74 53 -80 60 -85 98 -5 37 -12 46 -80
97 -70 53 -168 116 -145 93z"/>
<path d="M3447 4742 c-20 -22 -39 -71 -31 -83 9 -15 20 -10 31 14 6 12 26 31
46 41 34 19 35 19 71 -2 41 -24 46 -17 15 22 -17 22 -29 26 -68 26 -33 0 -53
-5 -64 -18z"/>
<path d="M3469 4679 c-24 -26 -29 -40 -29 -81 0 -41 5 -54 29 -79 30 -29 71
-39 71 -17 0 7 12 24 26 39 37 39 44 104 14 142 -30 38 -73 37 -111 -4z"/>
<path d="M3113 4683 c-28 -10 -53 -75 -74 -188 -30 -167 -30 -186 1 -202 24
-13 38 -13 185 3 90 9 146 74 93 107 -12 8 -27 6 -55 -5 -21 -9 -71 -19 -110
-22 l-73 -5 0 92 c0 119 5 133 42 141 33 7 58 23 58 38 0 5 -10 2 -22 -6 -17
-12 -25 -13 -36 -4 -11 10 -10 14 8 28 17 13 19 18 9 22 -8 3 -19 3 -26 1z"/>
<path d="M3331 4625 c-18 -21 -31 -47 -31 -63 0 -46 -31 -94 -70 -108 l-35
-12 55 -1 c63 -1 92 14 115 60 13 24 14 36 4 68 -14 47 -7 71 21 71 12 0 18 5
15 10 -12 20 -44 9 -74 -25z"/>
<path d="M3374 4616 c-3 -8 -1 -23 5 -35 28 -52 1 -113 -64 -142 -36 -17 -37
-19 -14 -19 48 0 67 -51 38 -100 -11 -17 -22 -50 -25 -73 -5 -38 -2 -48 34
-96 37 -49 54 -95 77 -204 l5 -27 62 32 c39 20 81 33 115 36 l54 5 -28 29
c-24 25 -28 37 -27 81 0 29 7 70 14 93 12 38 12 43 -11 73 -18 25 -24 45 -24
85 l1 52 -23 -47 c-25 -50 -50 -71 -96 -83 -45 -11 -67 2 -88 51 l-19 46 25
33 c14 19 36 39 48 45 17 9 14 3 -10 -23 -26 -27 -33 -43 -33 -74 0 -50 14
-64 63 -64 32 0 46 7 71 33 17 19 37 51 43 72 14 43 9 50 -71 90 -30 16 -46
34 -70 82 -32 64 -43 74 -52 49z"/>
<path d="M3410 4616 c0 -8 5 -18 10 -21 6 -3 10 1 10 9 0 8 -4 18 -10 21 -5 3
-10 -1 -10 -9z"/>
<path d="M3560 4515 c-7 -9 -10 -18 -7 -21 3 -3 10 4 17 15 13 25 8 27 -10 6z"/>
<path d="M7846 4444 c-9 -8 -16 -22 -16 -30 0 -10 -12 -14 -39 -14 -58 0 -94
-35 -110 -105 -7 -32 -21 -76 -32 -99 -25 -55 -25 -102 0 -116 26 -13 38 -13
38 3 0 20 23 117 49 203 20 66 30 83 52 93 24 11 29 10 45 -10 12 -14 17 -33
14 -48 -5 -24 -4 -24 9 -7 7 11 11 29 8 42 -5 17 1 29 22 47 24 21 26 27 15
41 -17 20 -35 20 -55 0z"/>
<path d="M8347 4454 c-17 -17 -5 -34 24 -34 24 0 30 4 27 18 -3 17 -38 29 -51
16z"/>
<path d="M3595 4439 c-4 -6 -5 -12 -2 -15 2 -3 7 2 10 11 7 17 1 20 -8 4z"/>
<path d="M8260 4442 c0 -5 9 -12 21 -15 32 -9 12 -29 -21 -22 -22 5 -31 2 -39
-14 -6 -11 -11 -27 -11 -35 0 -13 4 -12 20 4 25 25 52 25 74 1 25 -28 16 -62
-21 -86 -29 -18 -33 -25 -30 -60 l2 -40 43 1 c26 0 48 7 53 15 6 8 8 43 5 78
-6 73 -50 174 -78 179 -10 2 -18 -1 -18 -6z"/>
<path d="M7893 4395 c-28 -20 -20 -55 13 -55 21 0 24 5 24 35 0 39 -6 42 -37
20z"/>
<path d="M8358 4403 c6 -2 18 -2 25 0 6 3 1 5 -13 5 -14 0 -19 -2 -12 -5z"/>
<path d="M8351 4368 c1 -13 5 -36 9 -53 l8 -30 1 37 c0 20 4 43 7 52 4 11 1
16 -10 16 -10 0 -16 -8 -15 -22z"/>
<path d="M1230 4364 c0 -5 5 -15 11 -21 12 -12 3 -37 -11 -28 -5 3 -11 2 -14
-3 -2 -4 4 -14 16 -21 11 -7 17 -8 14 -2 -4 6 -1 19 6 30 11 17 10 23 -5 38
-9 9 -17 13 -17 7z"/>
<path d="M7777 4356 c-13 -14 -77 -226 -77 -258 0 -9 6 -18 14 -21 31 -12 136
225 121 273 -7 23 -37 26 -58 6z"/>
<path d="M8387 4364 c-4 -4 -4 -39 0 -79 8 -94 1 -117 -39 -138 l-33 -17 35 6
c59 11 70 21 70 64 0 30 5 40 20 45 25 8 25 15 -1 76 -20 45 -36 59 -52 43z"/>
<path d="M1270 4355 c0 -5 5 -17 10 -25 5 -8 10 -10 10 -5 0 6 -5 17 -10 25
-5 8 -10 11 -10 5z"/>
<path d="M8230 4336 c-5 -13 -5 -45 -1 -72 5 -30 9 -38 10 -22 1 22 9 31 36
42 22 10 35 22 35 33 0 46 -64 60 -80 19z"/>
<path d="M1341 4335 c0 -5 3 -16 8 -23 7 -11 9 -10 14 3 4 9 3 14 -2 10 -5 -3
-12 1 -14 7 -3 7 -6 9 -6 3z"/>
<path d="M7855 4290 c-20 -38 -20 -106 0 -114 8 -3 14 -2 12 3 -1 4 11 18 26
32 20 17 30 37 34 67 6 42 5 42 -25 42 -25 0 -35 -6 -47 -30z"/>
<path d="M8368 4230 c-3 -28 -8 -54 -12 -57 -4 -4 -28 -10 -54 -14 l-47 -6 43
-2 c57 -1 82 24 82 84 0 60 -6 57 -12 -5z"/>
<path d="M1245 4261 c-3 -5 -1 -12 4 -16 6 -3 -7 -33 -29 -66 -44 -68 -45 -58
20 -159 110 -171 249 -442 311 -605 14 -39 44 -75 128 -159 61 -60 108 -113
105 -117 -3 -5 5 -26 16 -49 14 -27 27 -40 43 -41 12 -1 32 -3 44 -4 19 -2 21
1 12 17 -6 11 -25 28 -44 39 -27 16 -34 27 -40 67 -8 56 -51 169 -74 196 -9
10 -25 22 -37 26 -16 6 -26 29 -43 94 l-23 86 -54 26 c-66 31 -87 56 -104 128
-12 50 -11 60 6 104 13 33 35 63 67 91 53 45 68 49 91 26 12 -13 20 -14 36 -5
25 14 42 3 59 -38 10 -24 67 -59 78 -48 14 14 -263 226 -294 226 -7 0 -13 4
-13 9 0 5 -35 30 -77 55 -43 25 -71 46 -62 46 8 0 23 -6 34 -13 11 -8 34 -22
50 -33 l30 -19 -26 35 c-58 77 -110 102 -184 89 -12 -3 -19 1 -17 9 2 14 -4
16 -13 3z m309 -300 c-6 -6 -11 1 -18 29 l-7 25 15 -25 c8 -14 12 -27 10 -29z
m-37 -58 c-6 -6 -117 69 -117 79 0 5 27 -10 60 -33 34 -23 59 -43 57 -46z
m144 -499 c5 -15 8 -29 5 -31 -2 -2 -8 10 -14 26 -13 38 -5 41 9 5z"/>
<path d="M8446 4229 c-8 -18 29 -105 38 -91 3 6 -2 32 -13 59 -13 33 -21 43
-25 32z"/>
<path d="M1180 4200 c6 -11 13 -20 16 -20 2 0 0 9 -6 20 -6 11 -13 20 -16 20
-2 0 0 -9 6 -20z"/>
<path d="M7806 4185 c-10 -22 -29 -54 -41 -71 l-24 -31 67 2 c86 3 102 22 55
65 -17 15 -33 39 -35 52 -4 20 -7 19 -22 -17z"/>
<path d="M7910 4195 c-11 -13 -9 -15 15 -15 16 0 25 5 23 12 -7 19 -24 20 -38
3z"/>
<path d="M1141 4193 c-1 -7 -8 -10 -18 -6 -10 4 -3 -8 16 -25 35 -34 54 -43
29 -14 -9 9 -18 26 -21 37 -2 11 -5 15 -6 8z"/>
<path d="M8438 4163 c-1 -5 -21 -17 -43 -28 -25 -13 -41 -29 -45 -45 l-6 -25
-7 25 c-3 13 -9 21 -12 18 -4 -3 2 -23 13 -43 15 -30 20 -34 25 -21 4 10 3 15
-4 11 -6 -4 -7 3 -3 22 8 34 14 42 14 19 0 -9 7 -30 15 -46 12 -23 22 -30 46
-30 31 0 31 0 27 48 -3 26 -8 56 -13 66 -6 14 -5 17 3 12 8 -5 10 -2 6 8 -7
18 -11 20 -16 9z"/>
<path d="M8370 4033 c0 -15 18 -35 27 -32 5 2 1 12 -9 22 -10 9 -18 14 -18 10z"/>
<path d="M6080 3954 c-74 -41 -172 -92 -216 -114 l-82 -40 6 -146 5 -145 -33
-34 c-19 -19 -31 -37 -28 -41 8 -7 68 5 68 14 0 26 55 309 61 316 12 13 89
-12 89 -28 0 -7 -13 -16 -30 -19 -26 -6 -31 -13 -46 -62 -17 -60 -15 -72 9
-58 32 18 349 328 363 354 16 31 4 79 -18 79 -7 -1 -74 -34 -148 -76z"/>
<path d="M7841 3986 c-9 -11 -4 -19 25 -41 49 -37 74 -82 74 -131 0 -23 6 -46
13 -52 9 -8 11 9 7 85 -5 93 -5 95 -40 123 -39 32 -62 37 -79 16z"/>
<path d="M3683 3950 c3 -14 2 -47 -2 -73 -4 -26 -4 -50 1 -53 4 -3 6 -10 3
-15 -3 -5 1 -6 9 -3 38 15 37 124 -1 155 -15 13 -16 11 -10 -11z"/>
<path d="M1595 3941 c-7 -13 32 -34 46 -26 7 5 6 11 -2 21 -13 16 -35 18 -44
5z"/>
<path d="M1682 3928 c-7 -7 -12 -20 -12 -30 0 -14 8 -18 36 -18 l35 0 -21 30
c-25 35 -22 34 -38 18z"/>
<path d="M7785 3930 c-8 -13 3 -30 20 -30 20 0 30 21 14 31 -18 11 -26 11 -34
-1z"/>
<path d="M1536 3881 l-28 -29 26 -16 c82 -50 73 -49 85 -14 16 45 14 59 -6 51
-15 -6 -16 -4 -6 9 32 38 -34 38 -71 -1z"/>
<path d="M8405 3900 c-4 -6 -4 -22 -1 -35 8 -33 35 -23 28 11 -5 28 -18 39
-27 24z"/>
<path d="M1641 3883 c0 -10 4 -27 8 -37 7 -18 8 -18 14 -3 3 9 2 17 -2 17 -5
0 -7 9 -4 20 3 11 0 20 -6 20 -6 0 -11 -8 -10 -17z"/>
<path d="M6240 3863 c-51 -33 -83 -70 -113 -128 -28 -53 -31 -69 -31 -145 0
-73 4 -92 26 -135 34 -63 75 -107 136 -142 42 -25 56 -28 142 -28 81 1 103 4
153 27 31 15 57 28 57 30 0 2 -21 27 -47 54 -27 28 -61 78 -77 112 l-29 60
-28 -21 c-26 -18 -32 -19 -54 -7 -31 16 -41 50 -25 80 9 17 19 21 44 18 l33
-4 -15 36 c-47 113 -110 210 -136 210 -6 0 -23 -7 -36 -17z"/>
<path d="M8372 3852 c-12 -34 -5 -82 13 -82 8 0 11 17 11 49 -1 60 -10 72 -24
33z"/>
<path d="M1675 3834 c-35 -38 -34 -62 1 -35 15 12 40 21 55 21 31 0 40 23 13
34 -29 11 -45 6 -69 -20z"/>
<path d="M1770 3850 c0 -5 4 -11 9 -14 4 -3 6 -17 3 -31 -2 -15 0 -25 8 -25 7
0 9 8 5 20 -4 13 -2 20 5 18 24 -6 20 19 -5 30 -14 6 -25 7 -25 2z"/>
<path d="M1499 3838 c-1 -2 -3 -29 -4 -61 -3 -51 0 -59 22 -77 34 -26 43 -25
43 5 0 15 7 39 15 56 15 28 15 30 -10 41 -21 9 -31 9 -46 0 -20 -13 -26 -3 -8
15 8 8 8 13 0 17 -6 4 -12 6 -12 4z"/>
<path d="M8423 3833 c-7 -3 -13 -17 -13 -31 0 -24 1 -25 16 -10 18 18 16 47
-3 41z"/>
<path d="M5525 3733 c-33 -54 -76 -115 -95 -137 -35 -38 -35 -40 -38 -143 -4
-103 -3 -105 24 -134 34 -35 70 -37 131 -8 55 27 112 85 142 145 20 40 23 56
18 118 -3 39 -15 96 -27 127 -20 53 -73 129 -88 129 -4 0 -34 -44 -67 -97z"/>
<path d="M7922 3810 c0 -14 2 -19 5 -12 2 6 2 18 0 25 -3 6 -5 1 -5 -13z"/>
<path d="M1631 3804 c0 -11 3 -14 6 -6 3 7 2 16 -1 19 -3 4 -6 -2 -5 -13z"/>
<path d="M3518 3813 c-18 -5 -75 -77 -102 -130 -27 -53 -66 -186 -66 -225 0
-30 4 -38 18 -38 32 0 107 27 195 70 76 37 93 42 134 37 40 -4 53 -12 91 -52
30 -33 47 -44 54 -37 17 17 -22 59 -80 85 -57 26 -52 37 17 37 l37 0 -10 60
c-10 60 -10 61 21 91 26 27 34 29 51 20 41 -22 90 -135 107 -244 7 -45 25 -40
25 7 0 33 -98 247 -119 260 -14 9 -46 -9 -95 -54 -40 -36 -75 -49 -203 -75
-18 -3 -54 -24 -82 -46 -53 -42 -74 -49 -69 -21 2 9 38 35 83 60 44 23 90 55
103 70 33 37 54 81 48 97 -9 25 -105 42 -158 28z"/>
<path d="M1684 3789 l-19 -21 45 7 c52 8 54 10 45 24 -11 18 -51 12 -71 -10z"/>
<path d="M1810 3782 c-15 -27 -16 -72 -1 -72 12 0 31 47 31 75 0 33 -11 31
-30 -3z"/>
<path d="M1585 3746 c-19 -45 -19 -66 0 -66 18 0 35 31 35 64 0 39 -19 41 -35
2z"/>
<path d="M1712 3763 c-40 -4 -41 -5 -31 -26 7 -12 13 -24 15 -25 1 -2 18 4 37
13 35 16 58 47 34 43 -7 -1 -31 -3 -55 -5z"/>
<path d="M1640 3738 c0 -9 7 -22 17 -29 15 -13 15 -12 3 11 -17 34 -20 36 -20
18z"/>
<path d="M1761 3726 c-6 -7 -26 -17 -44 -21 l-32 -7 30 -10 c42 -13 85 4 78
31 -6 24 -16 26 -32 7z"/>
<path d="M1835 3721 c-3 -11 -12 -22 -19 -24 -8 -3 -17 -24 -21 -47 -6 -34 -3
-46 12 -63 11 -12 34 -48 52 -79 30 -54 31 -58 16 -82 -15 -22 -14 -31 9 -130
15 -58 26 -119 26 -135 0 -16 6 -31 14 -34 8 -3 21 -27 29 -54 11 -39 16 -44
22 -29 5 10 3 39 -4 66 -10 39 -9 75 5 202 l17 154 -67 137 c-37 75 -71 137
-76 137 -5 0 -11 -9 -15 -19z"/>
<path d="M3832 3697 c-24 -26 -27 -45 -12 -98 9 -31 15 -37 59 -48 28 -7 55
-19 62 -27 21 -25 27 -15 18 31 -13 72 -66 165 -94 165 -6 0 -21 -10 -33 -23z"/>
<path d="M1616 3691 c-16 -18 -16 -21 2 -50 16 -26 21 -29 34 -18 27 21 28 54
3 71 -21 14 -24 13 -39 -3z"/>
<path d="M1500 3682 c0 -10 19 -34 43 -51 15 -12 17 -11 17 8 0 13 -11 26 -30
36 -16 9 -30 12 -30 7z"/>
<path d="M1738 3672 c-35 -2 -48 -7 -48 -18 0 -8 -12 -26 -26 -39 l-26 -24 25
-7 c44 -10 93 13 112 52 9 20 15 36 13 37 -1 1 -24 1 -50 -1z"/>
<path d="M1570 3647 c0 -17 20 -37 37 -37 10 0 10 5 1 25 -12 26 -38 34 -38
12z"/>
<path d="M7748 3633 c-37 -39 -35 -53 6 -53 43 0 50 10 34 50 l-13 31 -27 -28z"/>
<path d="M6368 3619 c-24 -13 -23 -34 2 -59 17 -17 24 -18 41 -10 29 16 34 38
14 60 -20 22 -32 24 -57 9z"/>
<path d="M1751 3589 c-14 -12 -39 -19 -63 -19 -34 0 -39 -3 -33 -17 4 -10 14
-48 23 -85 14 -53 21 -68 39 -73 12 -3 31 -18 42 -34 19 -26 61 -145 75 -212
3 -14 17 -31 31 -39 13 -7 35 -28 47 -47 24 -34 39 -42 37 -20 -1 25 -17 52
-30 52 -10 0 -16 19 -21 65 -4 36 -12 81 -18 100 -22 69 -29 139 -18 170 9 27
6 38 -31 100 -23 38 -45 71 -49 74 -4 2 -18 -4 -31 -15z"/>
<path d="M3469 3570 c-13 -10 -19 -19 -13 -20 6 0 19 9 29 20 23 26 14 26 -16
0z"/>
<path d="M1860 3016 c0 -2 8 -10 18 -17 15 -13 16 -12 3 4 -13 16 -21 21 -21
13z"/>
<path d="M1890 3016 c0 -2 7 -9 15 -16 13 -11 14 -10 9 4 -5 14 -24 23 -24 12z"/>
</g>
</svg>
