<?xml version="1.0" standalone="no"?>
<!DOCTYPE svg PUBLIC "-//W3C//DTD SVG 20010904//EN"
 "http://www.w3.org/TR/2001/REC-SVG-20010904/DTD/svg10.dtd">
<svg version="1.0" xmlns="http://www.w3.org/2000/svg"
 width="200.000000pt" height="200.000000pt" viewBox="0 0 200.000000 200.000000"
 preserveAspectRatio="xMidYMid meet">

<g transform="translate(0.000000,200.000000) scale(0.100000,-0.100000)"
fill="#000000" stroke="none">
<path d="M0 1000 l0 -1000 1000 0 1000 0 0 1000 0 1000 -1000 0 -1000 0 0
-1000z m987 420 c14 -29 9 -38 -12 -20 -12 10 -15 10 -15 -4 0 -9 8 -16 20
-16 16 0 20 -6 18 -30 -1 -16 -5 -30 -9 -30 -10 0 -20 30 -13 41 3 5 -6 9 -20
9 -14 0 -26 -4 -26 -10 0 -5 7 -7 15 -4 11 5 15 -1 15 -20 0 -21 5 -26 28 -27
l27 -2 -28 -4 c-15 -2 -25 -8 -22 -13 3 -4 14 -6 25 -3 15 4 19 2 14 -10 -4
-12 -11 -14 -31 -6 -16 6 -31 5 -44 -1 -14 -8 -19 -7 -19 2 0 9 -3 9 -9 -2 -6
-8 -7 -18 -5 -22 3 -4 0 -8 -5 -8 -6 0 -11 -5 -11 -11 0 -5 5 -7 10 -4 16 10
12 -41 -4 -54 -12 -10 -17 -9 -24 6 -5 10 -7 24 -4 31 3 12 0 12 -19 1 -13 -7
-25 -12 -26 -11 -2 1 -12 2 -22 2 -18 0 -34 -26 -36 -55 0 -5 -8 -11 -19 -13
-16 -3 -18 1 -14 30 l3 33 -134 -3 -134 -3 7 43 c4 24 14 83 22 131 l16 88
236 -3 236 -3 13 -25z m60 18 c15 -6 31 -11 36 -10 4 1 7 -2 7 -8 0 -14 -37
-12 -43 3 -3 6 -6 3 -6 -7 -1 -19 -1 -19 -20 0 -10 10 -17 22 -14 27 5 9 7 9
40 -5z m128 -83 c2 -68 -1 -94 -13 -107 -8 -10 -12 -25 -8 -35 6 -14 4 -15 -4
-7 -7 7 -9 21 -5 33 4 12 7 64 7 117 1 123 20 122 23 -1z m63 -3 c2 76 8 98
28 98 9 0 14 -12 15 -32 l2 -33 7 35 c6 28 8 21 9 -36 1 -55 5 -75 19 -85 14
-11 15 -11 5 1 -8 9 -13 41 -12 85 1 53 3 63 9 40 4 -16 8 -24 9 -17 0 6 9 12
19 11 10 0 12 -3 5 -6 -8 -3 -13 -23 -13 -49 0 -33 -3 -43 -12 -38 -10 6 -10
4 0 -7 6 -7 12 -21 12 -32 0 -10 5 -15 11 -12 6 4 9 0 7 -11 -2 -14 4 -20 25
-22 21 -3 27 1 27 17 0 23 -17 37 -22 18 -2 -9 -12 -3 -28 17 -17 20 -20 28
-9 24 14 -5 17 4 22 52 3 32 8 63 12 69 7 12 68 15 79 4 4 -5 13 -8 19 -8 5 0
12 -6 15 -14 3 -8 0 -11 -6 -7 -6 3 -13 2 -17 -4 -4 -6 -12 -7 -18 -3 -7 3 -4
-3 6 -14 21 -25 22 -34 1 -26 -14 5 -13 3 2 -15 23 -27 34 -28 34 -2 0 11 5
20 10 20 6 0 10 4 10 8 0 5 -8 8 -17 8 -10 -1 -18 3 -18 9 0 5 8 8 18 7 15 -3
17 1 13 16 -4 12 -2 19 8 19 15 0 14 -29 -3 -87 -4 -14 -8 -45 -10 -70 -1 -25
-6 -46 -11 -48 -5 -2 -7 -9 -4 -16 4 -10 -19 -13 -96 -15 l-100 -1 0 24 c0 14
-4 28 -10 31 -5 3 -10 -3 -10 -13 0 -11 -8 -26 -17 -33 -16 -12 -17 -12 -6 2
7 9 10 18 8 21 -3 3 -1 17 4 32 7 17 7 26 1 26 -6 0 -10 -9 -10 -21 0 -16 -4
-19 -22 -14 -21 7 -22 6 -5 -7 18 -13 18 -14 0 -15 -16 -1 -19 9 -21 98 -4
124 11 155 19 39 l5 -85 2 67z m-131 -54 c-3 -7 -5 -2 -5 12 0 14 2 19 5 13 2
-7 2 -19 0 -25z m-237 -192 c-7 -7 -13 -7 -20 0 -6 6 -3 10 10 10 13 0 16 -4
10 -10z m77 -16 c1 -11 -1 -20 -5 -21 -44 -6 -62 -4 -62 8 0 7 7 14 15 14 28
3 33 4 41 12 10 9 10 10 11 -13z m78 -40 c-3 -5 -16 -10 -28 -9 -21 0 -21 1
-2 9 28 12 37 12 30 0z m-75 -15 c11 -13 10 -14 -5 -9 -14 6 -16 4 -10 -6 5
-8 4 -11 -3 -6 -6 4 -9 13 -5 21 7 19 8 19 23 0z m-147 -13 c3 7 4 3 4 -9 -1
-13 -2 -23 -3 -23 0 0 -9 10 -20 22 -13 16 -14 19 -2 10 13 -10 17 -10 21 0z
m2 -61 c-6 -5 -25 10 -25 20 0 5 6 4 14 -3 8 -7 12 -15 11 -17z m124 -57 c-10
-12 -9 -13 5 -8 9 3 16 10 16 15 0 5 8 9 18 9 9 0 13 -4 7 -8 -14 -10 -15 -70
-1 -75 6 -2 3 -3 -6 -2 -22 4 -23 -9 -2 -29 14 -14 11 -17 -13 -15 -5 0 -7 7
-5 16 3 12 -2 14 -20 9 -13 -4 -29 -8 -35 -8 -7 -1 -13 -4 -13 -8 0 -3 -9 -6
-20 -7 -22 -2 -27 12 -7 20 6 3 -1 6 -18 6 -23 1 -27 4 -15 11 8 5 25 10 37
10 12 0 27 8 33 18 8 11 10 12 7 2 -5 -18 43 -22 55 -5 12 17 9 30 -4 17 -14
-14 -32 -16 -24 -3 7 11 -48 22 -71 15 -10 -3 -8 1 5 8 12 8 21 16 18 19 -2 2
11 5 31 6 29 1 32 -1 22 -13z m-138 -91 c13 -16 12 -17 -3 -4 -10 7 -18 15
-18 17 0 8 8 3 21 -13z m-66 -82 c-3 -5 -1 -12 5 -16 14 -9 13 -125 -1 -125
-8 0 -10 20 -7 59 3 37 0 58 -5 54 -6 -3 -7 -1 -3 5 5 8 -1 12 -16 13 -23 1
-23 1 2 9 14 4 26 8 28 9 2 1 1 -3 -3 -8z m185 -23 c0 -6 -6 -5 -15 2 -8 7
-15 14 -15 16 0 2 7 1 15 -2 8 -4 15 -11 15 -16z m-153 -85 c-2 -21 -4 -6 -4
32 0 39 2 55 4 38 2 -18 2 -50 0 -70z m-53 21 c-5 -63 -14 -69 -14 -11 0 31
-4 47 -12 47 -9 0 -8 3 2 9 22 15 28 5 24 -45z m151 16 c21 -22 37 -40 34 -40
-3 0 -23 18 -44 40 -21 22 -37 40 -34 40 3 0 23 -18 44 -40z m-14 -17 c13 -16
12 -17 -3 -4 -10 7 -18 15 -18 17 0 8 8 3 21 -13z m93 -32 c4 -5 -3 -7 -14 -4
-23 6 -26 13 -6 13 8 0 17 -4 20 -9z"/>
<path d="M730 1435 c0 -5 5 -17 10 -25 5 -8 10 -10 10 -5 0 6 -5 17 -10 25 -5
8 -10 11 -10 5z"/>
<path d="M945 1430 c4 -6 11 -8 16 -5 14 9 11 15 -7 15 -8 0 -12 -5 -9 -10z"/>
<path d="M870 1409 c0 -5 5 -7 10 -4 6 3 10 8 10 11 0 2 -4 4 -10 4 -5 0 -10
-5 -10 -11z"/>
<path d="M840 1390 c6 -11 15 -20 20 -20 6 0 5 9 -2 20 -7 11 -16 20 -21 20
-4 0 -3 -9 3 -20z"/>
<path d="M820 1370 c0 -5 5 -10 11 -10 5 0 7 5 4 10 -3 6 -8 10 -11 10 -2 0
-4 -4 -4 -10z"/>
<path d="M850 1335 c0 -21 5 -25 28 -24 16 1 20 3 10 6 -16 4 -22 15 -19 36 0
4 -3 7 -9 7 -5 0 -10 -11 -10 -25z"/>
<path d="M820 1320 c0 -5 5 -10 10 -10 6 0 10 5 10 10 0 6 -4 10 -10 10 -5 0
-10 -4 -10 -10z"/>
<path d="M720 1291 c0 -6 4 -13 10 -16 6 -3 7 1 4 9 -7 18 -14 21 -14 7z"/>
<path d="M903 1293 c9 -2 23 -2 30 0 6 3 -1 5 -18 5 -16 0 -22 -2 -12 -5z"/>
<path d="M796 1238 c3 -4 11 -5 19 -1 21 7 19 12 -4 10 -11 0 -18 -5 -15 -9z"/>
<path d="M1402 1402 c-1 -7 -6 -10 -12 -7 -6 4 -10 -12 -10 -39 0 -25 0 -49 0
-53 0 -5 5 -9 10 -9 6 -1 11 -3 13 -4 1 -1 15 -4 31 -6 28 -3 28 -3 10 18 -19
21 -19 21 3 9 26 -13 39 1 17 20 -28 23 -42 19 -40 -12 1 -16 -1 -26 -5 -22
-4 5 -10 33 -12 63 -2 30 -4 49 -5 42z m59 -79 c13 -16 12 -17 -3 -4 -10 7
-18 15 -18 17 0 8 8 3 21 -13z"/>
<path d="M1280 1312 c0 -6 5 -14 10 -17 6 -4 7 -11 4 -17 -4 -7 -2 -8 5 -4 9
6 9 12 -1 24 -7 10 -14 19 -15 21 -2 2 -3 -1 -3 -7z"/>
<path d="M1477 1283 c-11 -10 -8 -45 3 -38 5 3 6 13 3 22 -5 12 -3 14 7 8 9
-5 11 -4 6 3 -8 14 -10 14 -19 5z"/>
<path d="M1365 1220 c3 -5 8 -10 11 -10 2 0 4 5 4 10 0 6 -5 10 -11 10 -5 0
-7 -4 -4 -10z"/>
<path d="M905 1079 c-3 -4 2 -6 10 -5 21 3 28 13 10 13 -9 0 -18 -4 -20 -8z"/>
</g>
</svg>
